<?xml version="1.0" encoding="UTF-8"?>
<svg id="Layer_1" data-name="Layer 1" xmlns="http://www.w3.org/2000/svg" version="1.1" viewBox="0 0 2000 1036">
  <defs>
    <style>
      .cls-1 {
        fill: gold;
        stroke-width: 0px;
      }
    </style>
  </defs>
  <path class="cls-1" d="M724.6,143h159.9v192.6h16.9l201.6-192.6h217.7l-282.6,256.2,315.6,267.8h-221.9l-230.5-201.2h-16.9v201.2h-159.9V143ZM251.2,461.2h179.7l-91.3-196.7-88.4,196.7ZM251.2,461.2h179.7l-91.3-196.7-88.4,196.7ZM251.2,461.2h179.7l-91.3-196.7-88.4,196.7ZM248.3,143h183l252,523.5h-156.2l-43.8-92.6H198.3l-41.3,92.6H0L248.3,143ZM248.3,143h183l252,523.5h-156.2l-43.8-92.6H198.3l-41.3,92.6H0L248.3,143ZM248.3,143h183l252,523.5h-156.2l-43.8-92.6H198.3l-41.3,92.6H0L248.3,143ZM1896.3,286.8l20.7-131c-73-14.4-147.1-23.1-221.4-26-88.4-2.1-164,7-187.2,11.2-43,7.4-78.9,21.5-107.4,42.2-29,21.3-51.1,50.6-63.6,84.3-14,35.9-21.1,81.4-21.1,137.2s7,101.2,21.1,136.4c12.6,33.2,34.6,62,63.2,83.1,28.1,19.8,64,33.9,107,40.9,51.5,7.8,103.6,11.5,155.8,11.2,112.4,0,238-31.4,261.5-41.3v-243h-241.7v99.2h104.9v43c-41.1,8.2-82.9,12.9-124.8,14.1-186.7,5-199.5-67.8-199.5-145s24-125.2,110.3-136.4c86.3-11.2,196.2-5.4,322.2,20.2M916.3,738.4v66.9h-79.7v-66.9h-32.2v150.8h32.2v-70.2h79.7v54.1c0,2.9.8,5.7,2.1,8.3,1.2,2,2.9,3.7,5,5,2,1.2,4.3,2.1,6.6,2.5,2,.3,4.1.5,6.2.4h12.4v-150.8h-32.2ZM1546.4,888.9v-150.8h-31.4l-63.2,111.6-64.5-111.6h-31.8v150.8h16.5v-116.9l67.8,116.9h8.3l66.1-116.1v99.6c0,2.9.8,5.7,2.1,8.3,1.2,2,2.9,3.7,5,5,2,1.2,4.3,2.1,6.6,2.5,2,.3,4.1.5,6.2.4l12.4.4ZM1748.8,888.9l-80.6-154.1h-9.5l-82.6,154.1h19l25.6-47.9h58.7l-8.3-15.3h-42.1l27.3-50.8,53.3,102.1c1.5,3.8,4.3,7,7.8,9.1,3.6,2.2,7.8,3.2,12,2.9h19.4ZM1916.5,738.4c-1,0-2,0-2.9.4-1.2,0-2.4.4-3.3,1.2-2.3,1.4-3.7,3.9-3.7,6.6v97.1l-107.4-105.4h-20.7v150.8h19v-113.6l109.1,109.9c4.5,4.1,10.7,3.7,16.5,3.7h2.1v-150.8h-8.7ZM1070.8,735.1h-9.5l-82.6,154.1h19l61.1-114,26,50.4h-42.6l-8.3,15.3h59.1l18.6,35.9c1.5,3.8,4.3,7,7.8,9.1,3.6,2.2,7.8,3.2,12,2.9h19.8l-80.6-153.7ZM1278.2,876.9l-47.5-56.6h-16.5v69h-32.2v-150.8h59.1s24.4-.4,40.5,7.4c16.1,7.9,22.7,18.6,22.7,32.6s-8.7,30.2-39.2,38.4l61.6,71.9h-24.8c-3.8,0-7.6-.8-11.2-2.1-5.8-1.7-12.4-9.9-12.4-9.9M1213.8,751.7v57h14.9s14.9.4,24.4-5.4c9.5-5.8,16.5-12.8,16.5-24-.4-11.2-7.4-21-17.8-25.2-5.2-2.2-10.9-3.2-16.5-2.9h-21.5v.4ZM676.7,818.6h5v28.9c4.1-4.5,10-7.1,16.1-7,12,0,20.2,8.7,20.2,21.5s-9.9,24.4-25.2,24.4c-5.5,0-11-1.2-16.1-3.3v-64.5ZM681.7,879.8c3.6,1.3,7.4,2,11.2,2.1,5.2.2,10.2-1.6,14-5.1,3.8-3.5,6.1-8.3,6.3-13.5v-.8c0-10.3-6.6-17.8-15.7-17.8s-10.3,2.5-15.7,8.7v26.4ZM732.5,908.3h-5l15.7-31.4-19-35.1h5l16.5,30.6,15.7-30.6h5l-33.9,66.5ZM1969,231.4c-8.2,0-16.1-3.3-21.9-9.1-5.8-6-9.1-14-9.1-22.3,0-12.5,7.6-23.8,19.1-28.6,11.6-4.8,24.9-2.1,33.7,6.7,12.1,12.1,12.1,31.6,0,43.7,0,0,0,0,0,0-5.8,5.9-13.6,9.3-21.9,9.5M1969,174.4c-14,.1-25.3,11.6-25.2,25.6.1,14,11.6,25.3,25.6,25.2s25.3-11.6,25.2-25.6c0-6.7-2.7-13-7.4-17.8-4.6-5.1-11.3-7.8-18.2-7.4M1976.9,217.4v-.4l-.4-1.7v-2.9c0-3.7-.8-6.2-2.9-7-2-.8-4.1-1.2-6.2-1.2h-4.1v13.2h-7v-34.7h12.4c3.2,0,6.4.4,9.5,1.2,3.6,1.5,5.8,5.2,5.4,9.1.4,2.9-1.1,5.7-3.7,7l-2.5,1.2c1.6.5,2.9,1.5,3.7,2.9,1.3,1.5,2,3.4,2.1,5.4v5c0,.8,0,1.2.4,1.7l.4,1.2h-7ZM1967.8,198.8c1.8,0,3.6-.3,5.4-.8,1.9-.7,3.1-2.6,2.9-4.5,0-1.7-.8-3.4-2.1-4.5-2.2-.8-4.6-1.3-7-1.2h-4.5v10.7h5.4v.4Z"/>
</svg>