<?xml version="1.0" encoding="UTF-8"?>
<svg id="Layer_1" data-name="Layer 1" xmlns="http://www.w3.org/2000/svg" version="1.1" viewBox="0 0 828.9 883.4">
  <defs>
    <style>
      .cls-1 {
        fill: gold;
        fill-rule: evenodd;
        stroke-width: 0px;
      }
    </style>
  </defs>
  <path class="cls-1" d="M365.2,311.9c0-63.8-25.9-126.3-71.2-171.5-49.9-49.9-118.1-76.3-197.1-76.3h-25.6v758.7h83.7c31.5,0,80.7-12.5,116-47.8,28.1-28.1,42.9-66.5,42.9-111.2s-15.5-91.2-46.1-121.9c-10.9-10.8-23.3-20.1-36.8-27.4,25.3-12.1,48.4-28.4,68.3-48.2,42.4-42.5,65.8-97.3,65.8-154.5h0ZM124.2,487.9v51.3c31.4,0,78.4,10.3,107.3,39.1,20.6,20.6,31.1,49.4,31.1,85.6,0,104.7-106.6,107.7-107.7,107.7h-32.5V116.6c54.1,4.9,100.5,25.4,135.2,60.1,35.7,35.7,56.1,85,56.1,135.2,0,95.4-86.8,176-189.6,176ZM730.2,457.8c-39.6-39.8-93.5-62.2-149.7-62-116.7,0-211.7,95-211.7,211.7s22,109.7,62,149.7c39.6,39.8,93.5,62.2,149.7,62,56.6,0,109.7-22,149.7-62,40-40,62-93.2,62-149.7s-22-109.7-62-149.7ZM580.5,768c-42.6.1-83.4-16.8-113.4-47-30.2-30-47.1-70.9-47-113.5,0-42.8,16.7-83.1,47-113.4,30-30.2,70.9-47.1,113.4-47,42.9,0,83.2,16.7,113.5,47,30.2,30,47.1,70.9,47,113.4,0,88.5-72,160.4-160.4,160.4ZM730.8,317.5l-41.9-41.1,30.6-30.6-36.3-36.3-31,31-97.1-95.1c-5.2-5.2-8-12.3-8-19.6,0-7.5,2.9-14.5,8.2-19.8,10.9-10.9,28.7-10.9,39.6,0,.4.4.9.9,1.3,1.4l38.6-33.7c-15.1-17.2-36.8-27.1-59.7-27.1-43.8,0-79.2,35.5-79.3,79.3,0,21.6,8.7,42.2,24.3,57.1l-19.4,19.4c-17.4,17.3-27.2,40.9-27.1,65.5,0,24.6,9.7,48.2,27.1,65.5,17.4,17.4,41,27.2,65.6,27.1,24.3,0,47.6-9.5,65-26.5l21.3-21.3,42.3,41.4,35.8-36.6h0ZM595.2,297.6c-7.7,7.5-18.1,11.7-28.9,11.7-11,0-21.6-4.3-29.3-12.1-7.8-7.8-12.2-18.3-12.1-29.3,0-11.1,4.3-21.5,12.1-29.3l19.8-19.7c17.3,17,38.6,37.8,59.2,58l-20.8,20.8h0Z"/>
</svg>