<?xml version="1.0" encoding="UTF-8"?>
<svg id="Layer_1" data-name="Layer 1" xmlns="http://www.w3.org/2000/svg" version="1.1" viewBox="0 0 2500 2500">
  <defs>
    <style>
      .cls-1 {
        fill: gold;
        stroke-width: 0px;
      }
    </style>
  </defs>
  <g>
    <path class="cls-1" d="M1250,426.1L167,1944.5h2167.7L1250,426.1ZM1448.4,1127l-13.2,13.3h-44.6l-11.6-13.3h-31.4l-13.2,13.3h-46.3l-5-6.6h-64.5l-5,6.6h-145.5l-11.6-13.3h-24.8v-5h24.8l11.6-13.3h145.5l5,5h66.1l3.3-5h46.3l13.2,13.3h31.4l11.6-13.3h44.6l13.2,13.3h21.5v5h-21.5ZM1455.1,1161.9v6.7h-23.2l-11.6,11.7h-48l-13.2-11.7h-33.1l-13.2,11.7h-66.2l-4.9-5h-86l-6.6,5h-94.2l-11.6-11.7h-31.4v-6.7h31.4l11.6-13.3h94.2l5,6.7h87.6l4.9-6.7h66.2l13.2,13.3h34.7l11.6-13.3h48l11.6,13.3h23.2ZM1458.3,1087l-13.2,13.3h-43l-11.5-13.3h-34.7l-13.2,13.3h-38l-6.6-6.7h-49.6l-6.6,6.7h-186.9l-11.6-13.3h-23.2v-5h23.2l11.6-13.3h186.9l4.9,6.7h52.9l5-6.7h38l11.6,13.3h36.4l11.5-13.3h43l11.6,13.3h23.2v5h-21.5ZM1468.2,1050.4l-9.9,11.6h-46.3l-10-11.6h-38l-11.6,11.6h-41.3l-3.3-5h-84.3l-4.9,5h-172l-11.6-11.6h-24.8v-6.7h24.8l11.6-13.3h172l4.9,5h82.7l4.9-5h41.3l13.3,13.3h34.7l11.6-13.3h46.3l11.6,13.3h19.8v6.7h-21.5ZM1476.5,1008.8l-11.6,11.6h-47.9l-11.6-11.6h-29.8l-11.5,11.6h-56.2l-6.6-5h-114.1l-4.9,5h-130.6l-11.6-11.6h-29.8v-6.7h29.8l11.6-13.3h130.6l4.9,6.6h115.7l5-6.6h56.2l11.5,13.3h31.4l9.9-13.3h47.9l11.6,13.3h23.1v6.7h-23.1ZM1478.2,968.8l-11.6,13.3h-44.6l-11.6-13.3h-33.1l-11.5,13.3h-54.6l-4.9-6.7h-140.6l-6.6,6.7h-69.4l-11.6-13.3h-47.9v-5h47.9l11.6-13.3h69.4l5,5h142.2l4.9-5h54.6l11.5,13.3h33.1l11.6-13.3h44.6l11.6,13.3h23.1v5h-23.1ZM1481.5,927.2l-11.6,11.7h-44.7l-11.6-11.7h-34.7l-11.6,11.7h-66.1l-4.9-5h-124l-5,5h-67.8l-11.6-11.7h-52.9v-6.7h51.3l13.2-13.3h67.8l6.6,6.7h122.4l4.9-6.7h66.1l11.6,13.3h34.7l11.6-13.3h44.7l13.2,13.3h23.2v6.7h-24.8ZM1503,888.9h-23.2l-11.6,11.7h-43l-11.6-11.7h-38l-9.9,11.7h-72.8l-4.9-6.7h-82.7l-5,6.7h-90.9l-9.9-11.7h-52.9v-6.7h51.3l11.6-13.3h90.9l3.3,5h86l3.3-5h72.8l13.2,13.3h34.7l11.6-13.3h43l13.3,13.3h21.5v6.7ZM1114.4,680.8h31.4l9.9-13.3h171.9l11.6,13.3h28.1v6.6h-28.1l-11.6,11.7h-171.9l-11.6-11.7h-29.8v-6.6ZM1071.4,722.4h28.1l11.6-11.7h39.7l11.6,11.7h170.3l9.9-11.7h41.4l11.6,11.7h24.8v5h-24.8l-11.6,13.3h-41.4l-9.9-13.3h-170.3l-11.6,13.3h-39.7l-11.6-13.3h-28.1v-5ZM1040,760.7h28.1l13.2-11.7h41.3l11.6,11.7h59.5l13.2-11.7h69.4l13.2,11.7h64.5l11.6-11.7h44.6l13.2,11.7h23.2v5h-23.2l-13.2,13.3h-44.6l-11.6-13.3h-64.5l-13.2,13.3h-69.4l-13.2-13.3h-59.5l-11.6,13.3h-41.3l-13.2-13.3h-28.1v-5ZM1023.5,802.3h24.8l9.9-13.3h46.3l11.6,13.3h64.5l9.9-13.3h125.7l13.2,13.3h64.5l11.6-13.3h44.6l13.2,13.3h18.2v6.7h-19.8l-11.6,10h-44.6l-11.6-10h-66.2l-11.6,10h-125.7l-9.9-10h-66.2l-9.9,10h-46.3l-8.3-10h-26.4v-6.7ZM1003.6,844h23.2l13.2-15h41.3l13.2,15h49.6l11.6-15h201.7l13.2,15h39.7l11.6-15h39.7l13.2,15h23.2v5h-24.8l-11.6,11.7h-39.7l-11.6-11.7h-41.3l-11.6,11.7h-201.7l-9.9-11.7h-52.9l-11.6,11.7h-41.3l-11.6-11.7h-24.8v-5ZM1002,1201.9h24.8l9.9-13.3h81l6.6,6.6h86l5-6.6h56.2l11.6,13.3h62.8l11.6-13.3h46.3l9.9,13.3h28.1v5h-26.5l-11.6,13.3h-46.3l-13.2-13.3h-61.2l-11.6,13.3h-56.2l-5-6.6h-86l-6.6,6.6h-81l-9.9-13.3h-24.8v-5ZM1307.9,1301.8l-11.6-15h-92.6l-13.2,15h-44.6l-11.6-15h-105.9v-5h105.9l11.6-11.7h44.6l11.6,11.7h94.3l11.6-11.7h46.3l11.6,11.7h23.1v5h-21.5l-13.2,15h-46.3ZM1350.8,1320.1v6.7h-19.8l-13.2,13.3h-44.7l-11.6-13.3h-72.8l-13.2,13.3h-44.7l-11.6-13.3h-74.4v-6.7h74.4l11.6-11.6h44.7l11.5,11.6h76.1l9.9-11.6h44.7l11.6,11.6h21.5ZM1387.3,1246.9l-13.3,13.3h-44.6l-11.6-13.3h-71.1l-13.2,13.3h-49.6l-5-5h-66.2l-4.9,5h-67.8l-11.6-13.3h-24.8v-6.7h26.5l9.9-11.7h67.8l6.6,6.6h62.8l6.6-6.6h49.6l9.9,11.7h74.4l11.6-11.7h44.6l11.6,11.7h26.5v6.7h-24.8ZM993.7,1361.8h26.4l11.6-11.7h43l13.2,11.7h147.2l11.6-11.7h43l11.6,11.7h24.8v5h-24.8l-11.6,13.3h-43l-11.6-13.3h-148.8l-11.6,13.3h-43l-11.6-13.3h-26.4v-5ZM1205.4,1421.7l-11.6-13.3h-100.9l-9.9,13.3h-46.3l-8.3-13.3h-24.8v-5h23.2l9.9-15h46.3l11.6,15h99.2l11.6-15h43l11.6,15h23.2v5h-23.2l-11.6,13.3h-43ZM1213.6,1441.6v6.7h-23.1l-9.9,10h-90.9l-11.6-10h-26.4v-6.7h26.4l11.6-13.3h90.9l11.6,13.3h21.5ZM471.2,1899.5v-353h1555.9v353H471.2Z"/>
    <path class="cls-1" d="M482.8,1889.5h1534.4v-331.3H482.8v331.3ZM1835.3,1634.8h81c36.4,0,54.6,15,54.6,48.3s-6.6,31.6-23.1,41.6c13.2,5,21.5,16.7,21.5,31.6l1.6,33.3c0,10,3.3,15,8.3,20v3.3h-29.7c-1.7-8.3-3.3-23.3-3.3-44.9s-9.9-33.3-29.8-33.3h-56.2v78.2h-24.8v-178.1ZM1674.9,1634.8h127.3v21.6h-102.5v55h94.2v18.3h-94.2v59.9h104.2v23.3h-129v-178.1ZM1489.8,1656.4c16.6-18.3,39.7-28.3,66.1-28.3,48,0,74.4,23.3,81,68.3h-52.9c-3.3-16.6-13.2-23.3-28.1-23.3-23.2,0-33.1,18.3-33.1,51.6s11.6,48.3,36.4,48.3,24.8-6.7,28.1-20h-24.8v-38.3h77.7v99.9h-36.4l-1.7-20c-14.9,16.6-31.4,23.3-52.9,23.3s-43-6.6-59.5-21.6c-16.5-18.3-24.8-41.6-24.8-71.6s8.3-50,24.8-68.3ZM1273.1,1634.8h54.6l61.2,94.9v-38.3c-1.6-20-1.6-38.3-1.6-56.6h54.5v178.1h-52.9l-62.9-98.2v40c1.6,20,1.6,38.3,1.6,58.3h-54.6v-178.1ZM1180.6,1634.8h57.9v178.1h-57.9v-178.1ZM1011.9,1634.8h81c38,0,56.2,15,56.2,48.3s-8.3,31.6-23.2,41.6c13.2,6.7,19.8,16.7,19.8,31.6l1.7,33.3c0,8.3,3.3,13.3,8.3,20v3.3h-28.1c-3.3-8.3-3.3-23.3-3.3-44.9s-9.9-33.3-31.4-33.3h-57.9v78.2h-23.2v-178.1ZM841.6,1634.8h23.1v73.3h89.3v-73.3h23.1v178.1h-23.1v-83.2h-89.3v83.2h-23.1v-178.1ZM691.1,1634.8h124v21.6h-100.8v55h94.2v18.3h-94.2v59.9h102.5v23.3h-125.7v-178.1ZM524.1,1634.8h77.7c31.4,0,48,15,48,43.3s-8.3,30-23.2,38.3c21.5,10,31.4,23.3,31.4,41.6s-4.9,28.3-14.9,38.3c-11.6,11.6-26.5,16.6-44.6,16.6h-74.4v-178.1Z"/>
    <path class="cls-1" d="M1947.8,1684.7c0-20-9.9-30-29.8-30h-57.9v61.6h52.9c23.1,0,34.7-11.7,34.7-31.6Z"/>
    <path class="cls-1" d="M1126,1684.7c0-20-9.9-30-29.8-30h-61.2v61.6h56.2c23.2,0,34.7-11.7,34.7-31.6Z"/>
    <path class="cls-1" d="M633.2,1758c0-13.3-6.1-22.2-19.5-26.1-5.1-1.5-11.2-2.2-18.5-2.2h-46.3v61.6h49.6c23.1,0,34.7-10,34.7-33.3Z"/>
    <path class="cls-1" d="M623.1,1695.3c2.3-3.8,3.6-8.4,3.6-14,0-18.3-13.2-26.6-36.4-26.6h-41.3v53.3h41.3c16.1,0,27.4-4,32.8-12.7Z"/>
  </g>
  <path class="cls-1" d="M1250,426.1,2334.7,1944.5,1250,426.1,167,1944.5,167,1944.5,167,1944.5,1250,426.1,1250,426.1,2334.7,1944.5,167,1944.5,2334.7,1944.5"/>
</svg>