<?xml version="1.0" encoding="UTF-8"?>
<svg id="Layer_1" data-name="Layer 1" xmlns="http://www.w3.org/2000/svg" version="1.1" viewBox="0 0 2500 303">
  <defs>
    <style>
      .cls-1 {
        fill: gold;
        fill-rule: evenodd;
        stroke-width: 0px;
      }
    </style>
  </defs>
  <path class="cls-1" d="M1721.6,303L1899.7,0h596.8v50h-447.6l-44.2,76.4h236.3l-28.5,50h-237.6l-45.5,76.4h237.6l-29.7,50.2h-415.7ZM1293.2,224.1h179.1c-6,8.7-8.7,17.5-5,23,6.5,9.7,29.5,5,35.5,3,12-3.7,18.5-11.2,24.2-21.2l30-52.5h-182.6c-38.2,0-39.5-22.7-24-50l56.2-95.4c16.7-27.5,39.2-31,67.9-31h317.5c32.2,0,32.2,26.2,19.2,50l-18,32.2h-180.1c5.5-10.5,5.7-19.7,1.5-25.5-7-9.5-25.5-7.5-35.2-2.5-7.7,4.2-14.2,11.5-21.2,23.2l-28.7,49h176.6c37.2,0,43,27.2,31.2,50l-53.7,89.7c-14.5,23.7-39.5,37-68.2,37h-315.2c-31,0-41.7-20.5-28.5-43l21.5-36h0ZM916,50C944.8,0,992.5,0,1029.4,0h269.8c28.5,0,52.5,23.7,37,50l-119.1,202.8c-25.2,40.5-45.5,50.2-77.7,50.2h-314c-31,0-45.2-22.7-28.5-50.2l119.2-202.8ZM1072.6,77.4l-90.9,151.4c-3,5.5-4.2,10.5-2.5,14.5,5.7,12.5,41,10.2,53.2,7.7,17.5-4,22-16.5,25.7-22.2l89.7-151.4c6.2-10.7,5.5-17.7,0-22-8-6.2-32.5-6.7-46-3-11.5,3.2-21,10.5-29.2,25h0ZM480.4,0h346.2c27.5,0,49,25,31,55l-35.7,60.7c-15.5,27.5-41.7,40.5-60.9,40.5,19.2,10.7,19.2,29.7,9.5,46.5l-35.7,62.2c-9.5,16.7-24,38.2-67.9,38.2H1.5v-50.2h329.7L480.4,0ZM584.3,126.4h88.2c20.5,0,28.7-10.7,33.5-20.2l18-28.7c7.2-13,7.2-27.5-8.2-27.5h-86.2l-45.2,76.4ZM509.1,252.8h88.2c20.5,0,28.7-10.7,33.5-20.2l18-28.7c7.2-13.2,7.2-27.5-8.5-27.5h-85.9l-45.2,76.4ZM2473.2,110.7c-13.7,0-25.5-10.7-25.5-25.2s11.7-25,25.5-25,25.2,10.5,25.2,25c0,14.5-11.5,25.2-25.2,25.2ZM2452.8,85.4c0,12,9,21,20.5,21s20.2-9,20.2-21-9-21-20.2-21-20.5,9-20.5,21ZM2468,87.4v12.5h-4.5v-29h11c7,0,10.2,2.5,10.2,8.2s-3.2,7.5-7.5,8l8.2,12.7h-5l-7.5-12.5h-5ZM2468,83.7h5.2c3.7,0,7-.2,7-4.7s-3.3-4.2-6.2-4.2h-6v9Z"/>
</svg>