<?xml version="1.0" encoding="UTF-8"?>
<svg id="Layer_1" data-name="Layer 1" xmlns="http://www.w3.org/2000/svg" version="1.1" viewBox="0 0 2500 2500">
  <defs>
    <style>
      .cls-1 {
        fill: gold;
        fill-rule: evenodd;
        stroke-width: 0px;
      }
    </style>
  </defs>
  <path class="cls-1" d="M2430.7,1877.6c5.5,0,10.8,1.4,16,4.2,5.2,2.8,9.3,6.8,12.2,12.1,2.9,5.2,4.4,10.7,4.4,16.4s-1.4,11-4.3,16.2-6.9,9.2-12.1,12.1-10.6,4.3-16.2,4.3-11.1-1.4-16.2-4.3c-5.2-2.9-9.2-6.9-12.1-12.1s-4.3-10.6-4.3-16.2,1.5-11.1,4.4-16.4c2.9-5.2,7-9.2,12.2-12.1s10.6-4.2,16.1-4.2h0ZM2430.7,1883c-4.6,0-9,1.2-13.4,3.5-4.3,2.3-7.8,5.8-10.2,10.1-2.4,4.2-3.6,8.9-3.6,13.7,0,4.7,1.2,9.2,3.6,13.5s5.8,7.7,10.1,10.1c4.3,2.4,8.8,3.6,13.5,3.6s9.2-1.2,13.5-3.6c4.3-2.4,7.7-5.8,10.1-10.1,2.4-4.3,3.6-8.8,3.6-13.5s-1.2-9.3-3.6-13.7c-2.3-4.3-5.9-7.8-10.2-10.1-4.1-2.3-8.7-3.5-13.3-3.5h0ZM2416.4,1928.2v-35.1h12.1c4.1,0,7.1.3,8.9,1,1.9.7,3.3,1.8,4.4,3.4s1.6,3.3,1.6,5.1-.9,4.8-2.7,6.7c-1.9,1.9-4.5,3.1-7.3,3.2,1.1.4,2.1,1,3,1.9,1.4,1.4,3.1,3.7,5.2,7l4.3,6.8h-6.9l-3.1-5.5c-2.5-4.3-4.4-7.1-5.9-8.2-1-.8-2.5-1.2-4.5-1.2h-3.3v14.9h-5.7s0,0,0,0ZM2422,1908.5h6.9c3.3,0,5.5-.5,6.7-1.5,1.2-.9,1.9-2.4,1.8-3.9,0-2.1-1.3-3.9-3.3-4.6-1-.4-2.9-.6-5.7-.6h-6.4v10.6h0ZM144.3,1918.1c-58.8,0-107.5-48.2-107.5-107v-133.3c0-58.8,48.7-107.5,107.5-107.5h288.5v82.7h-253c-19.8,0-35.5,16.2-35.5,36v111c-.1,19.5,15.6,35.4,35.1,35.5.1,0,.3,0,.4,0h253v82.6H144.3ZM639.6,1652.9c-19.8,0-35,16.2-35,36v229.2h-108v-240.3c0-58.8,48.7-107.5,108-107.5h178.5v82.7h-143.5ZM1170.5,1918.1h-252c-59.3,0-108-48.2-108-107v-133.3c0-58.8,48.7-107.5,108-107.5h252c59.3,0,107,48.7,107,107.5v133.3c0,58.8-47.7,107-107,107ZM1170.5,1688.9c0-19.8-16.2-36-35.5-36h-181.5c-19.8,0-35,16.2-35,36v111c0,19.8,15.2,35.5,35,35.5h181.5c19.6,0,35.4-15.9,35.5-35.5v-111ZM1771.2,1918.1h-322c-59.3,0-107.5-48.2-107.5-107v-240.8h107.5v245.4c0,10.7,9.1,19.8,19.8,19.8h67.4c11.2,0,19.8-9.1,19.8-19.8v-245.4h108v245.4c0,10.7,9.1,19.8,19.8,19.8h67.5c11.1,0,19.8-9.1,19.8-19.8v-245.4h107.5v240.8c0,58.8-48.1,107-107.5,107h0ZM2266,1918.1v-229.2c0-19.8-15.2-36-34.5-36h-146.5c-19.3,0-35,16.2-35,36v229.2h-107.5v-240.3c0-58.8,48.2-107.5,107.5-107.5h216c59.8,0,108,48.7,108,107.5v240.3h-108ZM1608.2,1336.3c-72,71.1-300.4,71.1-404,71.1s-332,0-404-71.1c-63.3-63.3-68.1-285-68.1-354s4.8-290.8,68.1-353.1c72-72,300.4-72,404-72s332,0,404,72c63.3,62.4,69.1,284,69.1,353.1s-5.7,290.7-69.1,354ZM1558.3,679.1c-43.2-43.2-217.8-50.9-354.1-50.9s-310.9,7.7-353.1,50.9c-33.6,33.6-48.9,189-48.9,303.2s15.4,269.7,48.9,303.2c42.2,43.2,216.9,51.8,353.1,51.8s310.9-8.6,354.1-51.8c33.6-33.6,48-189,48-303.2,0-114.2-14.4-269.7-48-303.2ZM1485.4,1074.4h-562.3l-34.6-272.5,171.8,119,143.9-144.9,144.9,144.9,171.8-119-35.5,272.5h0ZM1471.9,1180.9h-534.5l-8.6-59.5h550.8l-7.7,59.5ZM1343.4,991.9l-139.2-138.2-139.1,138.2-105.6-74.8,12.5,98.8h464.4l13.4-98.8-106.5,74.8h0Z"/>
</svg>