<?xml version="1.0" encoding="UTF-8"?>
<svg id="Layer_1" data-name="Layer 1" xmlns="http://www.w3.org/2000/svg" version="1.1" viewBox="0 0 2500 1001.7">
  <defs>
    <style>
      .cls-1 {
        fill: gold;
        fill-rule: evenodd;
        stroke-width: 0px;
      }
    </style>
  </defs>
  <path class="cls-1" d="M1005.1,640.4v-20.3h98v20.3h-38.9v159.5h-20.1v-159.5h-38.9ZM1210.8,696.9v20.3h-63.1v62.4h71.5v20.3h-91.7v-179.8h89.6v20.3h-69.5v56.5h63.1ZM1347.5,740.4c-2.3,25.4-12.2,65-53,65s-59.1-46-59.1-92.2,1.8-98.4,58.6-98.4,48.9,10.3,51.9,60.9h-19.9c-1.3-16.7-7.5-40.6-31.9-40.6-36.7,0-37.6,61.4-37.6,77.1,0,51.1,18.8,72.9,38.7,72.9s31.2-21.3,32.4-44.7h19.9ZM1397.8,799.9h-20.1v-179.8h20.1v75h56.6v-75h20.1v179.8h-20.1v-84.5h-56.6v84.5ZM1535.4,799.9h-20.2v-179.8h21.5l60.4,134.3v-134.3h20.1v179.8h-21.5l-60.4-134.6v134.6ZM1670.1,710.1c0-31.4,7.3-75,38.2-75s38.5,43.4,38.5,75c0,64.2-22.6,75-38.5,75-32.3,0-38.2-46.2-38.2-75ZM1649,710.1c0,93.5,49.8,95.3,59.3,95.3s59.5-1.8,59.5-95.3-48.9-95.3-59.5-95.3c-42.1,0-59.3,44.2-59.3,95.3h0ZM1880.8,799.9h-81.3v-179.8h20.2v159.5h61.1v20.3h0ZM1912.9,710.1c0-31.4,7.3-75,38.2-75s38.5,43.4,38.5,75c0,64.2-22.6,75-38.5,75-32.4,0-38.2-46.2-38.2-75ZM1891.9,710.1c0,93.5,49.8,95.3,59.3,95.3s59.5-1.8,59.5-95.3-48.9-95.3-59.5-95.3c-42.1,0-59.3,44.2-59.3,95.3ZM2147,706.2v93.8h-16.7v-20.5c-7.3,16.2-21.3,25.9-38.2,25.9-37.8,0-58.6-37.2-58.6-97.1s23.1-93.5,60.9-93.5,50,46.7,50.9,58.6h-20.2c-.2-14.9-7.3-38.3-31.2-38.3s-39.4,0-39.4,74,4.5,76,39.1,76,34.2-37.2,34.6-58.6h-34.4v-20.3h53.2s0,0,0,0ZM2201.7,620.1v179.8h-20.1v-179.8h20.1ZM2325.8,696.9v20.3h-63.1v62.4h71.5v20.3h-91.7v-179.8h89.6v20.3h-69.5v56.5h63.1,0ZM2370.6,742.9c-1.1,18,6.1,42.1,32.4,42.1s27.6-12.3,27.6-33.4-14.3-28.8-22.6-31.6c-5.7-2-11.3-3.6-17-5.4-17-5.4-36.5-13.1-36.5-48.3s19.7-51.6,47.5-51.6,45.7,31.3,46.4,52.1h-19.9c-.2-8.7-3.9-31.8-27-31.8s-26,11.8-26,30,13.1,25.7,28.8,30.1c21.7,6.2,47.5,13.3,47.5,56s-39.2,54.2-49.8,54.2-51.9-2.8-51.6-62.4h20.1s0,0,0,0Z"/>
  <path class="cls-1" d="M2463.2,165v-35.6H1008.3v35.6h662.3l-103.7,43.6h-558.6v35.6h763.5l-198.5,61.4h-565.1v35.6h828.9l-258.6,75.2h-570.4v35.6h873.6l-342.2,87.1h-531.4v35.6h1454.9v-35.6h-779.1l342.2-87.1h436.8v-35.6h-441.3s0,0,0,0h-315.6l258.5-75.2h498.5v-35.6h-769.2l198.5-61.4h570.8v-35.6h-804.3l103.7-43.6h700.6ZM2463.2,873.6H1008.3v-35.6h1454.9v35.6Z"/>
  <path class="cls-1" d="M286.3,128.1v253.1c-68.3,0-249.5,36.4-249.5,247.6s135.9,242.7,153.7,242.7h240.3V128.1h-144.5ZM181.6,633.6c0-110,39.6-154.6,68.8-171.5,12.3-7.2,25.2-10.7,35.9-12.5v345.8c-47.3,0-104.7-51.8-104.7-161.8h0ZM908,672c0,140.4-83.7,199.4-146.8,199.4h-270V128.1h206.8c105.9,0,194.8,50.2,194.8,173s-39.2,177.8-93,196.5c0,0,108.2,34,108.2,174.3h0ZM635.7,438h44.3c39.8,0,66.3-28.2,66.3-102.9s-39.5-100.8-66.3-100.8h-44.3v203.8ZM685.6,544.7h-49.9v227.5h49.9c40.9,0,69.1-38.1,69.1-120.6s-41.9-106.9-69.1-106.9Z"/>
</svg>