<?xml version="1.0" encoding="UTF-8"?>
<svg id="Layer_1" data-name="Layer 1" xmlns="http://www.w3.org/2000/svg" version="1.1" viewBox="0 0 1999 1471">
  <defs>
    <style>
      .cls-1 {
        fill: gold;
        stroke-width: 0px;
      }
    </style>
  </defs>
  <g id="surface1">
    <path class="cls-1" d="M362.8,1201.9v108.9h-121.7v-108.9h-41.6v233.9h41.6v-102.5h126.2v82.7c-.2,4.3.9,8.6,3.2,12.2,2,3.1,4.8,5.6,8,7.4,2.9,1.6,6.4,1,9.9,1.6s6.7-1.3,9.6-1.3h19.5v-233.9h-54.8Z"/>
    <path class="cls-1" d="M1336.5,1435.8v-233.9h-51.2l-96.7,173.3-98.6-173.3h-48v233.9h19.2v-177.8l108.9,177.8h12.8l105.7-176.5v155.1c0,5.4-1,9.6,1,13.1,1.5,3.1,3.8,5.8,6.7,7.7,3.2,1.9,5.8,1,9.6,1.6s6.1-1,9-1h21.8Z"/>
    <path class="cls-1" d="M1643.7,1435.8l-123.6-233.9h-14.4l-126.5,233.9h28.8l39.4-67.3h89.7l-12.5-28.8h-64.7l41.6-77.9,81.7,158.9c2.6,5.2,6.8,9.6,11.8,12.5,4.8,2.9,10.9,2.6,18.6,2.6h30.1Z"/>
    <path class="cls-1" d="M1900.8,1201.9c-1.3,0-2.9,1.9-4.5,2.2-1.8.7-3.5,1.6-5.1,2.6s-.6,2.9-1.6,4.5,1,4.5,1,7v150.9l-169.8-167.3h-32v233.9h22.4v-172.7l170.4,168.9c6.7,6.4,19.5,3.8,28.8,3.8h-.6v-233.9h-9Z"/>
    <path class="cls-1" d="M604.3,1201.9h-14.4l-126.8,233.9h28.8l93.8-175.9,40.7,79.8h-65l-12.5,28.8h90l28.5,54.1c2.6,5.1,6.7,9.1,11.9,11.5,4.8,2.9,10.9,1.6,18.6,1.6h30.4l-123.9-233.9Z"/>
    <path class="cls-1" d="M820.8,1230.7v86.5h25.9s22.7-1,37.5-9.3c14.7-8.3,25.3-20.5,25.3-38.1s-11.2-30.8-27.2-36.8c-8.3-1.7-16.8-2.4-25.3-2.2h-36.2ZM922.4,1421.3l-73-87.8h-28.5v102.5h-48v-233.9h92.6s37.5,1.3,61.8,13.5c24.3,12.2,34.9,30.1,34.9,51.6s-13.1,45.8-59.9,58.6l94.5,110.2h-37.8c-5.7,1.3-11.7,1-17.3-1-9.3-3.2-19.2-13.8-19.2-13.8"/>
    <path class="cls-1" d="M7.3,1425.5c3.2,2.2,11.5,3.2,17,3.2,17.9,0,31.1-12.5,31.1-30.1s-10.2-27.6-24-27.6-11.2,3.8-24,13.1v41.3ZM.9,1333.2h6.4v42.3c12.8-7.1,14.1-11.2,25-11.2,18.3,0,30.8,13.8,30.8,33.3s-14.7,37.8-38.1,37.8c-8.3-.1-16.4-1.9-24-5.1v-97.1Z"/>
    <path class="cls-1" d="M85.8,1471h-7.4l24-47.7-29.1-54.8h7.7l25.3,48.1,23.7-48.1h7.7l-51.9,102.5Z"/>
    <path class="cls-1" d="M300.4,968c-77.8,0-140.9-63.1-140.9-141s63.1-141,140.9-141,139.3,63.1,139.3,141-62.5,141-139.3,141M629,842V0h-164s.3,566.5.3,565.5c-157.3-105.1-385.3-16.3-446.5,157-50,141.6,6.7,292.5,133.2,366.2,89,51.6,204,59,313.9-2.6,0,0,1,34.3,0,32.7h163v-276.8Z"/>
    <path class="cls-1" d="M1450.5,1124.6s-1-165,0-165.3c179.7-12.8,180.6-264-1-278.8v-166c106.7,0,183.2,31.1,231.9,115.7,43.6-86.8,141.6-115.7,229-115.7,0,1,1,166,0,166-173.3,15.1-180.3,249.9,0,277.8v166.3c-171.4,0-228.7-93.6-229-92.9-38.4,48.4-99.3,92.9-230.9,92.9"/>
    <path class="cls-1" d="M1058.2,968c-76.9,0-139.3-63.1-139.3-141s62.5-141,139.3-141,140.9,63.1,140.9,141-63.1,141-140.9,141M1340,722.5c-60.9-173-289.2-261.8-446.5-157,0,1,.3-565.5.3-565.5h-164v1118.6h162.7c-1,1.9,0-32.7,0-32.7,109.9,61.8,224.8,54.5,313.9,2.6,126.5-73.4,183.2-224.3,133.6-365.9"/>
    <path class="cls-1" d="M1958.8,414.6c9-.2,17.7,3.4,24,9.9,6.5,6.2,10.1,14.8,9.9,23.7,0,9-3.6,17.7-9.9,24-6.4,6.4-15,9.9-24,9.9-9.1.3-17.8-3.3-24-9.9-6.5-6.3-10.1-15-9.9-24-.2-9,3.4-17.6,9.9-23.7,6.3-6.5,15-10.1,24-9.9M1998.2,448.3c.2-10.4-4-20.4-11.5-27.6-11.2-11.2-28.1-14.6-42.8-8.6-14.7,6-24.3,20.3-24.5,36.2-.1,10.4,3.9,20.5,11.2,27.9,15.4,15.4,40.3,15.4,55.7,0,7.7-7.2,12-17.3,11.9-27.9M1969.1,439.9c0,3-1.7,5.7-4.5,6.7-2.4.7-4.9,1.1-7.4,1h-7v-15.4h6.7c3.2-.1,6.3.4,9.3,1.6,2.1,1.2,3.3,3.7,2.9,6.1M1942.8,426.8v43.3h7.4v-17h6.1c2.9-.3,5.9.2,8.6,1.3,2.9,1.6,4.2,4.8,4.2,9.9v5.4h7l-.3-.6c-.2-.7-.3-1.5-.3-2.2v-6.4c0-2.4-.8-4.8-2.2-6.7-1.7-2.4-4.4-3.9-7.4-4.2,2.2-.2,4.3-1,6.1-2.2,2.8-1.8,4.3-5,4.2-8.3.4-4.7-2.3-9.2-6.7-10.9-3.8-1.2-7.8-1.8-11.8-1.6h-14.7v.3Z"/>
  </g>
</svg>