<?xml version="1.0" encoding="UTF-8"?>
<svg id="layer" xmlns="http://www.w3.org/2000/svg" version="1.1" viewBox="0 0 652 158">
  <defs>
    <style>
      .cls-1 {
        fill: gold;
        stroke-width: 0px;
      }
    </style>
  </defs>
  <path class="cls-1" d="M205.6,52.7h23.8c1.6.1,3.2.1,4.8.2,12.7,1.2,19,10,19,21.2s-1.2,9.9-4.2,13.9c-6.1,7.9-14.3,8-20.9,8.1h-22.4v-43.4h-.1ZM216.4,60.4v28.1h12c3.9-.1,8.3-.1,11.2-4.2,1.3-1.8,2.6-4.8,2.6-10.3s-.9-7-2.2-8.9c-2.8-4.5-7.4-4.6-11.1-4.6h-12.5ZM271.1,79.9v16.3h10.9v-16.3l20.7-27.1h-13.2l-11.9,16.7c-.6.8-.7,1-1,1.9-.3-.9-.4-1.1-1.2-2.2l-11.5-16.4h-13.4l20.6,27.1ZM304.5,96.2h10.3v-23.9c-.1-3.3-.1-4.1-.4-7.4,2.4,3.1,3.3,4.2,5.6,6.8l21.5,24.5h10.8v-43.4h-10.3v22.2c.1,3.8.1,4.9.4,9-2.7-3.4-3.2-4-5.8-7l-21.3-24.2h-10.8v43.4h0ZM377,52.7h11.8l21,43.4h-12.2l-3.7-8.2h-22.3l-3.7,8.2h-11.9l21-43.4ZM383.8,66.1c-.3-.6-.6-1.2-.7-1.7-.2-.6-.3-1.1-.4-1.7-.2.6-.3,1-.4,1.5-.2.6-.4,1.1-.7,1.7l-6.6,14.5h15.3l-6.5-14.3ZM448.5,81.5c-1.4,2.6-4.3,8.2-13.7,8.2s-15.7-5.7-15.7-15.1,5.6-15.1,15.4-15.1,11.8,5.2,13,7l11.9-1.5c-5.7-12.4-19.9-13.5-24.9-13.5-13.7,0-26.8,6.6-26.8,23s10.7,23.3,26.2,23.3,16.9-3.6,20.4-6.8c3.9-3.6,4.9-6.7,5.7-9.4h-11.5ZM511.5,59.8c1.8,2.2,4.7,7,4.7,14.2,0,13.8-9,23.6-26.5,23.6s-26.8-9.5-26.8-23.1,10.7-22.5,25-23.1c8.4-.4,18.1,1.8,23.6,8.4M474,74.8c0,5.3,2,8.1,2.8,9.1,1,1.5,4.2,6,12.7,6s15.6-6.9,15.6-15.3-7.3-15.7-16-15.4c-7.4.3-15.1,5.1-15.1,15.6M521.3,52.7h29.9c4.9,0,9.4.4,13,4.6,2.2,2.6,2.8,5.8,2.8,8.4s-1.1,7.3-4.2,9.6c-2.3,1.8-5.4,2.4-7.1,2.7l13.2,18.2h-12.8l-11.6-17.5h-12.4v17.5h-10.9v-43.5h0ZM532.2,71h17.4c2.3,0,6.5-.3,6.5-5.2s0-2.3-.9-3.4c-.8-1-1.8-2.1-6.2-2.1h-16.9v10.7h.1ZM573,52.7h23.8c1.6.1,3.2.1,4.8.2,12.7,1.2,19,10,19,21.2s-1.2,9.9-4.2,13.9c-6.1,7.9-14.3,8-20.9,8.1h-22.5v-43.4ZM583.9,60.4v28.1h12c3.9-.1,8.3-.1,11.2-4.2,1.3-1.8,2.6-4.8,2.6-10.3s-.9-7-2.2-8.9c-2.8-4.5-7.4-4.6-11.1-4.6h-12.5ZM131.2,77v-3.8h14.9c-1-30.5-26.1-54.9-56.8-54.9s-55.8,24.5-56.8,54.9h14.9v3.8h-14.9c1,30.5,26.1,55,56.8,55s55.8-24.5,56.8-55h-14.9ZM127.4,86.2c0,7.1-6.8,10.1-15.2,10.1H46.5l4.8-5.1v-30.5h20.3v30.5h30.4c2.8,0,5.1-2.3,5.1-5.1v-24.1c0-2.8-2.3-5.1-5.1-5.1h-50.7l-4.8-5.1h65.7c8.4,0,15.2,3.6,15.2,10.1,0,0,0,24.3,0,24.3ZM89.3,6.3c-38,0-68.8,30.8-68.8,68.8s30.8,68.8,68.8,68.8,68.8-30.8,68.8-68.8S127.3,6.3,89.3,6.3M89.3,135.8c-33.4,0-60.6-27.2-60.6-60.6S55.9,14.6,89.3,14.6s60.6,27.2,60.6,60.6-27.2,60.6-60.6,60.6"/>
</svg>