<?xml version="1.0" encoding="UTF-8"?>
<svg id="Layer_1" data-name="Layer 1" xmlns="http://www.w3.org/2000/svg" version="1.1" viewBox="0 0 280 300">
  <defs>
    <style>
      .cls-1, .cls-2 {
        fill: gold;
        stroke-width: 0px;
      }

      .cls-2 {
        fill-rule: evenodd;
      }
    </style>
  </defs>
  <g>
    <path class="cls-2" d="M91.8,79.6c3.5,6.1,5.8,15.3,1.9,22-.5.8-1.1,1.6-1.8,2.3-5.9-7.3-9.2-18-5-27.1.5-1.2,1-2.2,1.7-3.2.4,2.3,1.8,4.1,3.2,5.9h0Z"/>
    <path class="cls-2" d="M193.3,94.9c-1.3,3.2-3,6.1-5.1,8.9-4.6-4.6-4.7-12.7-2.5-18.5,1.1-2.8,2.1-5.7,4.1-8.1.7-1.1,1.4-2.3,1.6-3.7,4.1,5.7,4.6,14.8,1.9,21.3h0Z"/>
    <path class="cls-2" d="M107.9,92.4c3.6,6.3,5.6,16.4.7,22.8-.3.5-.7.9-1.1,1.3-5.4-7-8.5-17-5-25.8.6-1.6,1.4-3.1,2.4-4.5.3,2.3,1.7,4.3,3,6.2h0Z"/>
    <g>
      <path class="cls-2" d="M58.7,82.4c-8,.2-15.7-.8-21.6-6-2.5-2.6-3.9-5.6-4.2-9.1,4.9-2.1,10.6-.4,14.6,2.4,4.6,3.1,8.4,8.1,11.2,12.7h0Z"/>
      <path class="cls-2" d="M247.1,67.3c-.3,4.8-3.3,9.2-7.6,11.5-5.4,3-11.7,3.9-18.3,3.6,4.8-8,12.6-16.9,22.6-16,1.2.2,2.3.3,3.3.8h0Z"/>
      <g>
        <path class="cls-2" d="M76.1,82.6c-.6,2.7-1.6,5.2-3.7,7.3l12.3,8.9c10.1,7.6,20.1,15.1,29.5,24.2,1.9,2,4.2,4.3,5.8,6.8-2.7-5.8-4-13.7-1.9-20.1,1.1-3.3,2.9-6.6,5.7-9,0,2.4.8,4.4,1.8,6.4,2.3,7.6,2.4,17.8-4.3,23.2l-.7.5h0l11.3,17.6c1.7,1.1,3.2,2.5,4.8,4-.4.6-1,1.1-1.5,1.6,1.4,2.3,3,4.4,4.7,6.6,1.8-2.1,3.4-4.4,4.9-6.7l-1.4-1.4c1.4-1.5,3-2.8,4.6-3.9l10.1-15.8h0l1.3-2.1c-6.2-4.7-7.2-12.9-5.7-20.4.4-1.9.8-3.8,1.8-5.5.5-1.3.9-2.8.8-4.3,6.3,5.9,8.1,15.1,5.9,23.6-.5,1.6-1,3.2-1.6,4.7,3.5-4.4,8-8.5,12.2-12.2-4.8-4.7-5-12.9-2.8-19,.9-2.4,1.8-5,3.6-7.1.8-1.3,1.5-2.7,1.7-4.2,3.8,5,4.9,12.5,3.2,18.9-1.1,4.1-3,7.7-5.4,11.1,11.2-9.5,22.9-18.1,34.7-26.5-5.5-5.4-4.5-15.4-1.5-21.8,1.2-3,2.8-5.8,4.5-8.7,3.6,8.2,4.7,20,0,28.1-.6,1-1.3,2.1-2,3,3.7-1.9,7.8-2.9,12.4-2.7,6.6.4,12.3,2.9,17.6,6.5-8.2,3.6-21,6.6-28.3-1.2l-1.1-1.3c-5.1,3.6-10.3,7.3-15.4,11.2,6.1-1.9,13.7-1.6,19.1,1.8,1.9,1.3,3.9,2.8,5.5,4.8-2.4-.2-4.5.7-6.5,1.6-7.6,2-16.9,1.7-22-5.2-4.1,3.1-8,6.2-11.9,9.5,5.8-2,13.6-1.8,18.9,1.3,2.3,1.2,4.3,2.8,6,5-2.4-.2-4.5.7-6.4,1.6-7.5,1.9-16.8,1.7-22-5-3.8,3.3-7.8,6.9-11.1,10.9,6.1-2.7,14.7-3.1,20.5.3,2,1.1,4,2.5,5.6,4.3-2.3,0-4.3.8-6.2,1.8-7,2.4-16.7,2.8-22.1-3.6-3,4.7-6,9.4-9,14.1,4.2-2,10.1-2.4,14.6-.8,4,1.3,7.7,3.7,10.8,6.9-6.4,6.5-15.4,10.4-24.3,6.9-2.4-.9-4.5-2.3-6.6-3.8-1.5,2.3-3.2,4.7-5,7,6.7,7.4,13.9,14.1,23.2,15.4,0,0,.2,0,.3,0l-1.4,1.8c-7.6-.7-13.6-5.4-19.2-10.7-1.5-1.4-3-3.1-4.4-4.7-6.6,7.4-13.8,14-23.1,15.4h-.6l-1.5-1.8c9.5-1.2,16.8-7.9,23.6-15.4-1.8-2.3-3.5-4.6-5-6.9-5.4,4.4-13.1,6.5-20,4-4.1-1.4-7.6-3.8-10.9-7.1,6.5-6.8,16.2-10.3,25.1-6.4l-.2-.3h0l-8.4-13.3c0,0,0,0,0,0-5.5,6.1-15.3,5.7-22.2,3.2-1.8-1-3.7-1.8-6-1.8,5.8-6.4,14.7-8.2,22.8-5.8,1,.3,2,.6,3,1h0c-3.2-3.8-7.1-7.3-10.8-10.6-5.3,6.8-14.9,6.9-22.4,4.8-1.8-.8-3.7-1.6-5.8-1.4,5.8-7.4,15.7-9.2,24.4-6.5-3.8-3.1-7.6-6.3-11.6-9.2-5.3,6.8-14.9,7-22.5,4.8-1.8-.8-3.7-1.6-5.8-1.3,4-4.9,9.3-7.3,15.3-7.7,3.1-.2,6,.3,8.8,1.1l-.4-.4h0l-12.1-8.8h0l-2.6-1.8c-4.5,6.1-12.3,6.9-19.3,5.6-3.5-.8-6.8-1.8-10-3.1,8.1-5.9,20.5-9.3,29.9-3.9h0c-5.4-6.6-6.3-16.5-4.2-24.9.5-2.2,1.2-4.2,2-6.2,4.2,7,8,14.5,6.6,23.4h0Z"/>
        <path class="cls-2" d="M146.8,137.2c-1.3,4.4-3.8,8.2-7.1,11.8-6-6.4-9.7-15.1-6.8-24.1,1.3-4.1,3.7-7.8,6.8-11,6.2,6,9.6,14.5,7.1,23.3h0Z"/>
      </g>
    </g>
  </g>
  <g>
    <path class="cls-2" d="M39.4,240.7l5-11.8h19.1l21.4-52h155.7l-4.8,11.8h-23.6l-21.8,52.1h-16l22.2-52.8h-23.4s2.6,11-7.4,17.1c0,0,7.4,10.8,5.7,17.8,0,0,.2,13.7-19,17.9h-47.4l22.3-52.8h-32.2l-4.7,11h22.9l-5.1,12.2h-22.7l-12.5,29.6h-33.8ZM157.6,191.7c-1.5-4.4-5.1-3.8-5.1-3.8h-9.5l-4.8,11.4h11.6s5.4-.2,6.9-2.4c0,0,1.5-1.7.9-5.2h0ZM157.6,217.2c-2.2-6.5-7.6-5.5-7.6-5.5h-16.9l-7.1,16.9h20s8-.3,10.3-3.5c0,0,2.4-2.6,1.4-7.9h0Z"/>
    <path class="cls-1" d="M209,225.4c3.9,0,7,3.3,7,7.3s-3.1,7.3-7.1,7.3-7.1-3.2-7.1-7.3,3.2-7.3,7.1-7.3h0ZM208.9,226.9c-3,0-5.4,2.6-5.4,5.9s2.4,5.8,5.4,5.8c3,0,5.4-2.6,5.4-5.8s-2.4-5.9-5.4-5.9h0ZM207.7,237h-1.7v-8.1c.6-.1,1.3-.2,2.5-.2s2.2.2,2.7.6c.4.4.7.9.7,1.8s-.7,1.6-1.5,1.9h0c.7.2,1.1.8,1.3,2,.2,1.3.3,1.8.4,2h-1.7c-.2-.3-.3-1-.5-2.1-.1-.9-.6-1.2-1.5-1.2h-.8v3.4h0ZM207.7,232.3h.8c1,0,1.7-.3,1.7-1.2s-.5-1.2-1.6-1.2-.7,0-.9,0v2.3Z"/>
  </g>
</svg>