<?xml version="1.0" encoding="UTF-8"?>
<svg id="Layer_1" data-name="Layer 1" xmlns="http://www.w3.org/2000/svg" version="1.1" viewBox="0 0 2000 1560">
  <defs>
    <style>
      .cls-1 {
        fill: gold;
        stroke-width: 0px;
      }
    </style>
  </defs>
  <path class="cls-1" d="M345,1051c2.9,25.7-26.9,204.9,279.9,264.3,303.7,58.7,681.7-96.2,681.7-96.2h21.8s-332.2,164.5-672.1,115.8c-339.9-48.7-322.9-244.1-324.2-283.8h12.8Z"/>
  <path class="cls-1" d="M979.6,1218.7s-220,126.7-382.6,134.1c-162.6,7.4-303-50-260.7-301.8h-12.8s-36.6,216.5,88.8,282.9c125.4,66.4,288.9,72.2,639.7-115.1h-72.5Z"/>
  <path class="cls-1" d="M199.8,684.8v122.2H57.7v-122.2H0v275.5h57.4v-128.6h142.1v98.8c-.1,5.3,1.1,10.6,3.5,15.4,2.3,3.7,5.5,6.8,9.3,9,3.6,2,7.5,3.5,11.5,4.2,3.6.6,7.3.9,10.9,1h22.1v-275.5h-57.1v.3ZM1324.4,960.2v-275.5h-56.1l-112.6,204-114.8-204h-57.1v275.5h29.5v-213.6l120.9,213.6h15.1l117.7-212v182.2c-.2,5.4,1.2,10.7,3.8,15.4,2.2,3.7,5.3,6.8,9,9,3.6,2.2,7.7,3.6,11.9,4.2,3.7.6,7.5.9,11.2,1h21.5v.3ZM1685.4,960.2l-144-281.6h-16.7l-147.5,281.6h33.7l45.9-87.6h104.5l-14.4-28.2h-75.4l48.4-92.7,94.9,186.3c3,6.7,7.8,12.5,13.8,16.7,6.5,3.7,14,5.5,21.5,5.1h35.3v.3ZM1984.6,684.8c-1.8,0-3.6,0-5.5.3-2.1.3-4.1,1-5.8,2.2-1.9,1.3-3.5,2.9-4.8,4.8-1.3,2.3-2,5-1.9,7.7v177.7l-191.4-192.7h-36.9v275.5h33.7v-207.8l194.3,200.8c8,7.4,18.9,6.7,29.5,6.7h3.9v-275.5h-15.1v.3Z"/>
  <path class="cls-1" d="M1377.3,375c-128.6-10.9-275.5,4.5-373.6,24.4-119.6,24.4-231.2,58-336.4,104.2-24.1,10.6-47.1,22.1-69.9,34.3,76.3-57.6,157.4-108.4,242.4-152,245.6-125.1,503.1-172.5,625-81.8,31.7,22.9,53.1,57.4,59.6,95.9-48.2-12.6-97.5-21-147.2-25M552.2,574.1s67-38.2,117.4-59.3c123.8-52.6,232.8-83.4,333.2-102.3,81.1-15.4,328-53.9,524,7.7,3.2,45.5-9.3,98.1-34.3,154.3h80.5c19.9-41.4,33.3-81.5,39.4-118.7,30.3,16.1,58,36.5,82.4,60.6,22.4,22.4,43.9,58,43.9,58h35.6c-12.3-25.3-28.8-48.4-48.7-68.3-31.1-31.7-69.6-55.8-110.3-74.1,6.1-72.5-17.6-134.1-78.6-176.4-145.6-101.7-434.2-43.3-700.3,99.4-113.5,61.1-219.7,134.6-316.8,219.4h32.7v-.3Z"/>
  <path class="cls-1" d="M475.5,678.7h-17l-147.5,281.6h33.7l109-208.1,47.1,92.7h-75.7l-14.7,28.2h104.9l33,65.7c3,6.7,7.8,12.5,13.8,16.7,6.5,3.7,14,5.5,21.5,5.1h35.3l-143.3-281.9ZM731.1,708.8v104.2h26.6s26.3.3,43.6-9.3c17.3-9.6,29.2-23.4,29.2-43.9-.2-20.3-12.8-38.5-31.7-45.9-9.4-3.7-19.4-5.5-29.5-5.1h-38.2ZM845.6,938.1l-85-103.9h-29.5v126h-57.4v-275.5h105.5s43.6-.6,72.1,13.5c28.5,14.1,40.7,34.3,40.7,59.6s-15.4,55.5-69.9,70.6l110,131.5h-43.9c-6.9-.2-13.7-1.4-20.2-3.5-10.9-3.5-22.4-18.3-22.4-18.3"/>
  <path class="cls-1" d="M776,1062.5l-16.4,35.9h32.7l-16.4-35.9ZM812.9,1129.6h-6.1l-12.2-26.3h-37.2l-12.2,26.3h-6.1l35.3-76.6h3.2l35.3,76.6ZM1511,1065.1c-8.3-4.8-17.7-7.3-27.3-7.4-18.6.2-33.5,15.4-33.3,34,.2,18.6,15.4,33.5,34,33.4,9.6-.2,19-2.9,27.3-7.7v6.1c-8.3,4.5-17.5,7-26.9,7.1-23.1,0-40.4-16.7-40.4-39.1,0-21.7,17.7-39.2,39.4-39.1.2,0,.5,0,.7,0,9.3.2,18.5,2.4,26.9,6.4v6.4h-.3ZM1566.1,1057.7c-18.6.2-33.5,15.3-33.3,33.9.1,18.6,15.2,33.5,33.8,33.5,18.6,0,33.6-15.1,33.6-33.7,0-18.6-15.2-33.7-33.8-33.7,0,0-.1,0-.2,0M1565.8,1130.5c-21.5-.7-38.4-18.5-37.9-40,.5-21.5,18.1-38.6,39.6-38.3,21.5.2,38.7,17.7,38.7,39.2,0,21.7-17.7,39.2-39.4,39.1-.3,0-.6,0-1,0M1690.2,1053.2h5.8v76.3h-5.8v-67.7h-.3l-28.9,35.6-28.9-35.6h-.3v67.7h-5.8v-76.3h5.8l29.2,35.6,29.2-35.6ZM1724.9,1088.8h14.1c14.1,0,19.6-6.7,19.6-15.4s-5.5-15.4-18.9-15.4h-14.7v30.8ZM1739.9,1053.2c18,0,25,9.3,25,20.2s-5.8,20.5-25.3,20.5h-14.4v35.6h-5.8v-76.3h20.5ZM1800.2,1062.5l-16.4,35.9h32.7l-16.4-35.9ZM1837.1,1129.6h-6.1l-12.2-26.3h-37.2l-12.2,26.3h-6.1l35.3-76.6h3.2l35.3,76.6ZM1920.5,1129.6h-4.8l-58-66.7v66.7h-5.8v-76.3h4.8l57.7,66.7v-66.7h6.1v76.3ZM1970.2,1088.5v41.1h-5.8v-41.1l-29.8-35.3h7.4l25.3,30.1,25.3-30.2h7.4l-29.8,35.3ZM895.3,1108.4c.6,1.9.6,3.9,0,5.8-.7,3.4-3.9,5.7-7.4,5.1-2,.2-4-.4-5.4-1.8-1.5-1.4-2.3-3.3-2.2-5.3v-7.4h-20.5v5.8c0,17.3,13.5,22.4,27.9,22.4s25.3-4.8,27.3-17.6c.7-4.1.7-8.4,0-12.5-3.2-16-32.4-20.8-34.6-29.8-.3-1.4-.3-2.8,0-4.2.6-3.3,3.7-5.5,7.1-5.1,1.9-.2,3.8.5,5.2,1.8,1.4,1.4,2,3.3,1.8,5.2v4.8h19.2v-5.5c0-16.7-15.1-19.2-26-19.2s-24.7,4.5-26.9,17c-.7,3.4-.6,6.9.3,10.3,3.2,15.7,30.5,20.2,34.3,30.1M1145.1,1108.4c.5,1.9.5,3.9,0,5.8-.7,3.4-3.9,5.7-7.4,5.1-4.8,0-7.7-2.6-7.7-6.7v-7.4h-20.5v5.8c0,17,13.5,22.1,27.6,22.1s25-4.8,26.9-17.3c.7-4.1.7-8.4,0-12.5-3.2-16-32.1-20.8-34.3-29.5-.3-1.3-.3-2.6,0-3.8.6-3.3,3.7-5.5,7.1-5.1,1.9-.2,3.8.5,5.2,1.8,1.4,1.4,2,3.3,1.8,5.2v4.8h18.9v-6.1c0-16.7-14.7-19.2-25.7-19.2s-24.7,4.5-26.6,17c-.7,3.4-.6,6.9.3,10.3,3.5,15.4,30.5,19.9,34.3,29.8M1304.8,1115.1l-1.3-61.9h18.9v76h-27.3l-19.2-63.8,1,63.8h-18.9v-76h28.5l18.3,61.9ZM959.1,1059l-10.6,71.2h-20.8l14.1-77h34.3l14.1,77h-20.5l-10.6-71.2ZM1071.3,1059l-13.1,71.2h-19.6l-13.1-71.2-.6,71.2h-19.2l1.6-77h31.4l9.6,60.3,9.9-60.3h31.1l1.9,77h-19.6l-.3-71.2ZM1209.6,1118.7c3.5.3,6.6-2,7.4-5.5.3-.9.4-1.9.3-2.9v-56.8h19.6v60.3c-1.3,14.4-12.8,18.9-26.9,18.9s-25.3-4.5-26.9-18.9c0-1-.3-3.5-.3-5.1v-55.2h19.6v56.8c0,1,0,2,.3,2.9.5,3.4,3.6,5.8,7.1,5.5M1369.9,1118c3.8.5,7.3-2,8-5.8.3-.9.4-1.9.3-2.9v-11.2h-8v-11.2h27.3v20.5c0,1.7,0,3.4-.3,5.1-1.3,14.1-13.5,18.9-26.9,18.9s-25.7-5.1-26.9-18.9c-.2-1.7-.3-3.4-.3-5.1v-32.4c0-1.3.3-3.8.3-5.1,1.6-14.4,13.5-18.9,26.9-18.9s25.7,4.5,26.9,18.9c.2,1.7.2,3.4,0,5.1v2.6h-19.2v-4.2c0-1,0-1.9-.3-2.9-.8-3.5-4.1-5.9-7.7-5.5-3.5-.3-6.8,2-7.7,5.5-.3,1.2-.4,2.3-.3,3.5v35c0,1,0,1.9.3,2.9.5,3.8,3.9,6.5,7.7,6.1"/>
</svg>