<?xml version="1.0" encoding="UTF-8"?>
<svg id="Layer_1" data-name="Layer 1" xmlns="http://www.w3.org/2000/svg" version="1.1" viewBox="0 0 1920 1080">
  <defs>
    <style>
      .cls-1 {
        fill: gold;
        stroke-width: 0px;
      }
    </style>
  </defs>
  <g id="a2c03b250a">
    <g>
      <path class="cls-1" d="M1037.8,343.7c-1.5-51.4,8.3-98.4,30.3-142.6,30.3-60.8,78.8-101.9,142.3-123.7,75.7-26.1,153.1-28.5,230.4-5.9,85.2,24.9,135.6,83.5,158.5,167.5,12,43.9,13.2,89,13.2,134.2,0,9.7-5.1,9.3-11.4,8.8-35.2-2.8-70.3-5.7-105.5-8.6-26.1-2.2-52.3-4.6-78.4-6.8-37.7-3.2-75.3-6.5-113-9.6-14.6-1.2-29.2-2.4-43.8-3.2-5-.3-9.4-1-7.6-6.9,1.9-6.4-6.4-16.5,6-19,67.4-13.9,134.8-27.8,202.4-41.2,9.1-1.8,12.9-4.3,11.9-14.6-4-43.2-23.4-77.2-63.4-94.5-60.7-26.3-120.9-23.3-175.6,16.6-33.1,24.1-49.6,59.7-57.4,99.1-11,55.3-6.4,108.5,24.1,157.4,22.8,36.5,57,56.6,98.6,63.3,62.8,10.2,119.4-4.7,168-46.4,5.8-5,8.9-4.8,15-.3,26.8,20.1,54,39.7,81.4,59,7.6,5.4,9.2,7.9,1.3,15.3-48.3,45.4-104.4,75.3-170.5,83-77.6,9-153.6,3-224-35.2-72.1-39.2-111.9-101.7-127.6-180.8-4.4-22-6.4-44.2-5.2-64.6Z"/>
      <path class="cls-1" d="M853.6,628c-72.5-1.4-141.5-15.3-201.8-58.2-62-44-97.8-104.3-108.6-179.5-10-69.7-1.2-136.1,35.4-197.2,41.8-69.8,105.9-108.8,183.5-126.3,63.6-14.3,127.7-14.5,191.3,2.1,22.6,5.9,43.3,15.9,63.4,27.7,5.8,3.5,8,6.3,3.9,12.9-19.3,32-38.2,64.1-57,96.4-3,5.2-5.5,6.5-10.9,2.8-37.9-26.2-80.7-33-125.3-28.4-73.1,7.5-128.6,50.2-141.7,128.5-9,53.7,0,103.5,37,145.6,27.2,31,63.1,44.8,103.2,49.1,48.4,5.2,95-1.7,139.4-21.8,5.1-2.3,7.9-1.2,10.3,3.4,17.2,32.1,34.4,64.2,51.9,96.2,4.1,7.5-2.7,7.9-6,9.5-26.4,13.6-54.3,23.2-83.4,28.8-27.8,5.4-56,8.5-84.5,8.4Z"/>
      <path class="cls-1" d="M307.9,343.3c0-86.2.2-172.4-.2-258.6,0-10.4,2.1-14,13.2-13.8,38.4.7,76.7.6,115.1.1,9.6-.1,13.4,1.8,13.4,12.5-.3,172.8-.3,345.7,0,518.5,0,9.4-2.2,12.7-12.2,12.5-39.2-.6-78.5-.6-117.7,0-10.4.2-11.8-3.7-11.7-12.7.3-86.2.2-172.4.2-258.6Z"/>
      <path class="cls-1" d="M932.2,854c10-32.6,20-65.2,30-97.8,4.5-14.7,9.5-29.3,13.1-44.3,1.8-7.7,5.6-9.7,12.6-9.1,3.4.3,6.9,0,10.3,0,28.6,0,28.5,0,36.9,28,12,39.7,24.2,79.3,36.3,118.9.5,1.5,1.3,2.9,3.1,7,9.8-35.5,18.8-68.5,27.9-101.4,4.2-15.2,8.7-30.4,12.5-45.7,1.1-4.5,2.4-6.8,7.3-6.8,15.5.2,31.1,0,46.6,0,10.3,0,5.3,6,3.8,10.3-20.1,59.9-40.3,119.9-60.6,179.8-3.8,11.3-5.3,25.9-13.2,32.6-8.8,7.4-24,.9-36.3,2.6-13.4,1.8-19-3-23.1-16.4-11.8-38.8-25.8-76.9-39.5-116.9-8.3,15-11.4,30.4-16.4,45.1-9,26.2-17.6,52.7-25.9,79.1-2.1,6.7-5,9.7-12.6,9.2-14.2-.9-31.2,4.2-41.8-2.1-10.5-6.2-10.7-24.9-15.2-38.1-21-61-41.4-122.1-62.7-185.1,19.7,0,38.4,0,57.1,0,6.6,0,6.7,5.1,8,9.6,13.1,47.3,26.3,94.6,39.5,141.9l2.4-.4Z"/>
      <path class="cls-1" d="M534.5,786.5c-5-25.9-15.8-48.8-36-66.5-32.9-28.9-91.7-32.1-132.9,5.5q-4.4-22.5-26.7-22.5c-5.2,0-10.4.6-15.5-.1-12.1-1.8-15.8,2-15.8,15,.6,97,.3,193.9.3,290.9s.2,3.5,0,5.2c-1.2,8,2,10.6,10,10.1,12-.7,24.2-.7,36.2,0,8.4.4,11.1-2.1,10.9-10.7-.5-25-.2-50-.2-75,0-14.2,0-13.7,13.8-9.5,48.1,14.7,91.9,8.3,127.4-29.6,29.9-31.9,36.6-70.7,28.5-112.6ZM447.1,877.5c-25.1,14.9-50.9,10.8-76.3-.8-5.3-2.4-6.2-6.2-6.1-11.4.3-10.8,0-21.5,0-34.9,1.5-11.8-2.5-26.6,2.4-40.9,10.1-29,35.3-46.1,62.9-42.4,29,3.9,46.4,24.9,48.9,57,2.4,30.4-4.3,56.9-31.9,73.4Z"/>
      <path class="cls-1" d="M690.7,695.1c-66.9-2.1-121.2,50.6-121.4,119.4-.2,68,52.8,121.3,120.4,121.2,70.1-.1,121.8-50.9,122.1-120.9.3-72.4-56.6-121.6-121.1-119.7ZM732.5,869.8c-11.5,11.5-25.7,16.5-36.4,16.8-54.3-.1-73.8-49.6-68.9-81.4,4-25.8,15.3-47.6,41.2-57.7,37.7-14.7,78.8,10.9,84.7,52.3,3.7,26.3-1,50.3-20.5,69.9Z"/>
      <path class="cls-1" d="M1404.8,890.7c-28.3,30.6-64,40.6-103.9,38.7-29.8-1.4-57.8-8.8-80.4-29.6-28.5-26.3-37.1-60.5-34.6-97.3,2.4-35.2,16-65.6,46.8-86.2,43.2-29,128.3-28.2,162,13.2,23,28.3,27.1,61.2,26.1,95.7-.2,5.6-4.2,4.3-7.4,4.1-41.1-3.3-82.3-6.5-123.4-10.3-5.6-.5-15.2,1.5-16-6.3-1.1-10.5,10.3-6.8,15.5-8.2,21.5-5.5,43.4-9.7,65.3-13.3,10.2-1.7,10.3-7.2,8.4-14.6-5.5-21.9-24.3-36.4-48.1-37.4-42.8-1.7-67.3,18.8-72.9,62.4-5.7,43.5,15.2,70.6,40.6,78.7,26.3,8.4,51.1,4.2,73.2-11.8,7.1-5.1,11.5-6.1,18.4-.2,9.4,8.1,20,14.8,30.5,22.5Z"/>
      <path class="cls-1" d="M1517.3,728.9c19.7-21.9,42.5-31.7,69.7-31.1,24.1.5,24.8,1.2,20.2,24.3-2,10-1.4,22.4-7.2,29.4-5.9,7.1-18.2,0-27.7.3-32.1,1-55.4,23.1-55.6,55.2-.3,36.6-.4,73.3.1,109.9.1,9.1-2.4,12-11.5,11.4-12.5-.8-25-.4-37.5,0-6,.2-8.3-1.6-8.3-7.9.2-69.8.2-139.6,0-209.4,0-6.4,2.3-8.1,8.3-7.9,11.6.3,23.3.7,34.9-.1,9-.7,12.3,2.4,12,11.2-.1,4.2,1.4,8.4,2.5,15Z"/>
    </g>
  </g>
</svg>