<?xml version="1.0" encoding="UTF-8"?>
<svg id="Layer_1" data-name="Layer 1" xmlns="http://www.w3.org/2000/svg" version="1.1" viewBox="0 0 2500 2500">
  <defs>
    <style>
      .cls-1 {
        fill: gold;
        fill-rule: evenodd;
        stroke-width: 0px;
      }
    </style>
  </defs>
  <path class="cls-1" d="M168.1,1329.1c11.2,8.1,23.7,14.4,36.9,18.6,26.1,8.2,54.2,8.2,80.3,0,13.3-4.2,25.8-10.5,37.1-18.6,11.4-8.2,21.4-18.2,29.7-29.6,16.2-22.4,24.9-49.4,24.9-77,0-13.6-2-27.2-6.2-40.3-8.5-26.9-25.5-50.3-48.3-66.8-11.3-8.1-23.8-14.4-37.1-18.7-26.2-8.3-54.3-8.3-80.5,0-26.8,8.6-50.1,25.5-66.5,48.4-8.1,11.3-14.4,23.9-18.6,37.1-4.2,13.1-6.2,26.7-6.2,40.3s2,27,6.2,40c8.5,26.8,25.4,50.1,48.2,66.5ZM453.5,577.4H36.8l208.8,473.1,207.9-473.1h0Z"/>
  <path class="cls-1" d="M585.7,1717.6c0,12.8-2.5,25.6-7.4,37.4-9.9,23.9-29,43-52.9,52.9-11.9,4.9-24.6,7.4-37.4,7.4h-19.8c-12.8,0-25.6-2.5-37.4-7.4-23.9-9.9-43-29-52.9-52.9-4.9-11.9-7.4-24.6-7.4-37.4l-.2-221.7-225.5-.3v167.4c0,34,6.8,68.1,19.8,99.6,13.1,31.6,32.3,60.2,56.4,84.4,24.2,24.1,52.8,43.3,84.4,56.4,31.6,13,65.4,19.8,99.6,19.8h139.4c34,0,68.1-6.8,99.6-19.8,31.6-13.1,60.2-32.2,84.4-56.4,24.2-24.2,43.3-52.8,56.4-84.4,13-31.6,19.8-65.4,19.8-99.6V578.4l-218.8.3v1138.9c.1,0,.1,0,.1,0ZM2252.6,1495.9l-.2,196.9c0,12.8-2.6,25.6-7.4,37.4-4.9,11.9-12.1,22.6-21.2,31.7-9.1,9.1-19.8,16.3-31.7,21.2-11.9,4.9-24.6,7.4-37.4,7.4h-19.8c-12.8,0-25.6-2.5-37.4-7.4-11.9-4.9-22.6-12.1-31.7-21.2-9-9-16.3-19.9-21.2-31.7s-7.4-24.6-7.4-37.4V578.7c.1,0-218.7-.3-218.7-.3v1316.8h644.7l.2-399.7-210.6.3h0ZM1636.1,1298.6c-10.8-25.6-26.5-48.8-46.2-68.4-18.4-18.3-40.5-32.4-64.8-41.4,20.2-9.7,38.8-22.6,55-38.1,16.5-15.7,31.1-34.3,41-55.3,9.9-21.2,15-44.2,15-67.6v-239.7c.1-27.7-5.4-55.4-16-81s-26.2-49-45.8-68.5c-19.5-19.5-42.9-35.2-68.5-45.8s-53.2-16.1-81-16.1h-435.1v1318.5h451.7c85.5,0,162.5-51.5,195.2-130.4,10.6-25.7,16.1-53.2,16.1-81,0-101-.3-202.1,0-303.1,0-28.2-5.7-56.2-16.6-82.2h0ZM1202.1,690.4l114.5-.4c25.9,0,50.8,10.3,69.1,28.6,9.1,9.1,16.3,19.9,21.2,31.7s7.4,24.6,7.4,37.4l.6,264.3c0,32.8-19.8,62.5-50.1,75-9.9,4-20.4,6.1-31.1,6.2l-131.7.5v-443.4h0ZM1417.1,1724.5c-8.2,19.9-24,35.7-43.9,43.9-9.9,4.1-20.4,6.2-31.1,6.2l-140,.5v-522.8l122.8-.4c25.9,0,50.8,10.3,69.1,28.6,9,9,16.3,19.9,21.2,31.7s7.4,24.6,7.4,37.4l.6,343.7c0,10.7-2.1,21.2-6.2,31.1h0Z"/>
</svg>