<?xml version="1.0" encoding="UTF-8"?>
<svg id="layer" xmlns="http://www.w3.org/2000/svg" version="1.1" viewBox="0 0 652 184">
  <defs>
    <style>
      .cls-1 {
        fill: gold;
        stroke-width: 0px;
      }
    </style>
  </defs>
  <g id="Page-1">
    <g id="Desktop_Legal" data-name="Desktop/Legal">
      <g id="Imported-Layers-2">
        <path id="Fill-1" class="cls-1" d="M131.3,84.2l-10.8-4.6-19.1,11.5-7-18.8-12.9,8.2,1.6,3.9,28,11.2-10.3,28.4,6.4,2.2-2.8,7.6-14.2-5,10.2-28.5-13.8-5.6,6.3,16.1h-34.7c0,.1-1.9,6.3-1.9,6.3l-7.7-2.8,4-11.3h28.8l-9.7-26,19.7-12.1-4.1-10.9-15.3,20.7-12-4.8,3.3-7.9,6.3,2.6,15.7-21,8.3,3.4,12.1,32,14.4-8.5,14.5,5.9-3.3,7.8h0ZM111.8,61.9c2.1,0,3.9-1.7,3.9-3.9s-1.7-3.9-3.9-3.9-3.9,1.7-3.9,3.9,1.8,3.9,3.9,3.9h0ZM100.2,58c0-6.5,5.2-11.7,11.6-11.7s11.6,5.2,11.6,11.7-5.2,11.7-11.6,11.7-11.6-5.3-11.6-11.7h0Z"/>
        <path id="Fill-2" class="cls-1" d="M20.7,87.9c0,39.4,31.7,71.4,70.7,71.4s70.7-32,70.7-71.4S130.4,16.5,91.4,16.5,20.7,48.6,20.7,87.9h0ZM26.5,87.9c0-36.1,29.1-65.6,64.9-65.6s64.9,29.4,64.9,65.6-29.1,65.6-64.9,65.6S26.5,124.1,26.5,87.9h0Z"/>
        <path id="Fill-3" class="cls-1" d="M595.7,75.6v19.3h-39.2v5.2h39.3v14h-39.2v4.8h39.2v15.1h-71.5v-58.3h71.4"/>
        <path id="Fill-4" class="cls-1" d="M485.6,75.6h32.2v58.3h-32.2v-58.3h0Z"/>
        <path id="Fill-5" class="cls-1" d="M484.6,75.6h-39l-15.2,22.6v-22.6h-32.4v58.3h32.2v-19l15.5,19h37.1l-25.3-28.1,27.1-30.2"/>
        <path id="Fill-6" class="cls-1" d="M287.5,89.9l7.1,20.7h-10.2v16.1h13.8l2,7.1h33.8l-20.7-58.3h-51.3l-20.7,58.3h32.7l13.5-43.9"/>
        <path id="Fill-7" class="cls-1" d="M241.2,75.6v58.3h-30.4v-29.4l-11.5,29.4h-17.1l-11.5-30.7v30.7h-30v-58.4h40.7l10,30,9.5-29.9h40.3"/>
        <path id="Fill-8" class="cls-1" d="M620.7,127.3c0,4.1-2.9,7.8-10,7.8s-10-4.1-10-7.8,2.9-7.8,10-7.8,10,3.7,10,7.8"/>
        <path id="Fill-9" class="cls-1" d="M393,76.4s-14.4-2-27.6-2-38.8,5.7-38.8,31.2,11.4,30,36.4,30,29.7-3.2,29.7-3.2v-19.2s-5.6,2.3-18.2,2.3-14-5.6-14-9.8,4.4-8.3,14.6-8.3,17.9,1.7,17.9,1.7v-22.7"/>
        <path id="Fill-10" class="cls-1" d="M600.4,79.7c0-3.1,2.5-5.6,5.5-5.6s5.5,2.5,5.5,5.6-2.4,5.6-5.5,5.6c-3,0-5.5-2.5-5.5-5.6h0ZM610.7,79.7c0-2.7-2.2-4.9-4.8-4.9s-4.8,2.2-4.8,4.9,2.1,4.9,4.8,4.9c2.6.1,4.8-2.1,4.8-4.9h0ZM608.6,82.9h-.9l-1.7-2.9h-1.4v2.9h-.7v-6.2h2.7c.5,0,1,0,1.5.3s.7.8.7,1.3c0,1.2-.8,1.7-1.9,1.7l1.7,2.9h0ZM605.7,79.4h.5c.8,0,1.7-.1,1.7-1.1s-.8-1.1-1.6-1.1h-1.7v2.2h1.1Z"/>
        <path id="Fill-11" class="cls-1" d="M79.8,127.6c0-2,1.6-3.7,3.7-3.7s3.6,1.7,3.6,3.7-1.6,3.7-3.6,3.7c-2.1,0-3.7-1.7-3.7-3.7h0ZM86.6,127.6c0-1.8-1.4-3.3-3.2-3.3s-3.2,1.5-3.2,3.3,1.4,3.3,3.2,3.3,3.2-1.5,3.2-3.3h0ZM85.2,129.7h-.6l-1.2-1.9h-.9v1.9h-.5v-4.2h1.8c.3,0,.7,0,1,.2s.5.6.5.9c0,.8-.6,1.1-1.3,1.1l1.2,2h0ZM83.3,127.3h.3c.5,0,1.1-.1,1.1-.8s-.6-.7-1.1-.7h-1.2v1.5h.9Z"/>
      </g>
    </g>
  </g>
</svg>