<?xml version="1.0" encoding="UTF-8"?>
<svg id="Layer_1" data-name="Layer 1" xmlns="http://www.w3.org/2000/svg" version="1.1" viewBox="0 0 341.2 275.1">
  <defs>
    <style>
      .cls-1 {
        fill: gold;
        stroke-width: 0px;
      }
    </style>
  </defs>
  <path class="cls-1" d="M320.6,24.7c0-3.4-.7-4.1-4.1-4.1-98.6.1-197.2,0-295.8,0,0,76.6,0,153.2,0,229.8,0,3.4.7,4.1,4.1,4.1,97.3-.1,194.5-.1,291.8,0,3.4,0,4.1-.7,4.1-4.1-.1-75.3-.1-150.5,0-225.8ZM69.9,29.7v167.3c-46.1-36.3-60.4-114.8,0-167.3ZM67.8,248.4c-6,0-4.2-3.7-4.2-6.6-.2-7.7,0-15.3,0-23-.3,0-.7-.2-1-.3-2.3,8.2-4.6,16.5-6.8,24.8-.8,3.1-1.6,5.1-5.7,5.1-4,0-5-1.7-5.9-5-2-8.2-4.4-16.3-7.6-24.3,0,8.1-.2,16.2,0,24.4.1,3.5-.6,4.8-4.6,4.9-4.3,0-4.4-1.9-4.3-5.1.1-11,.1-22,0-33,0-2.8.7-3.7,3.6-3.7,10.2-.2,10.3-.3,13.2,9.7,1.7,5.7,3.3,11.4,5.5,18.6,2.6-9,4.9-16.4,6.8-24,.9-3.4,2.4-4.4,5.9-4.3,9.2.3,9.2,0,9.2,9,0,8.7.1,17.3,0,26,0,2.7,2.3,6.7-4,6.8ZM106.4,55.5v116.3c-43.6-25.1-43.6-91.1,0-116.3ZM95.9,248.7c-10.4,0-17.2-6.4-17-16,.2-9.2,7.1-15.4,17.2-15.4,9.9,0,17,6.4,17.1,15.5,0,9.3-7.1,15.9-17.2,15.8ZM109.5,113.7c.1-16.8,14-30.2,31.1-29.9,0,20.6,0,41.2,0,61.8-19.4-1.9-31.2-14-31.1-31.9ZM145.8,248.2c-2,0-4.5.9-4.4-2.8.2-5,.1-10,0-15,0-3.5-.6-6.8-5.3-7-4.5-.1-6.9,2.3-7.2,6.5-.3,5-.5,10-.2,15,.2,3.9-2.2,3.2-4.5,3.3-2.4,0-4.7.4-4.4-3.4.3-4,0-8,0-12,0-3.7,0-7.3,0-11,0-1.5-.9-3.8,1.8-3.7,2.1,0,5.3-1.6,6.1,1.3.9,3,1.7,1.4,2.8.5,3.2-2.5,7-3.1,10.9-2.5,5.1.7,8.2,3.8,8.4,8.9.2,6.3,0,12.7.2,19,.1,3.6-2.3,2.9-4.4,2.9ZM172.7,248.4c-7.9,2.3-12.8-.8-13.4-8.8-.2-3.5,0-7-.2-10.5-.1-2,1.3-4.7-2.7-5.1-1.8-.2-1.4-5,.6-5.9.9-.4,2.2-.3,2.1-1.6-.7-6.5,4.9-6.3,8.4-8.4,1.1,1.8.7,3.5.6,5.1,0,2.8-.3,5.5,3.9,4.9,2.4-.3,1.9,1.6,2,3.1.1,1.9-.2,3.5-2.6,3.1-3.2-.5-3.5,1.3-3.4,3.8.1,3,0,6,0,9,.1,2.7-.5,6.2,4.4,4.8,2.1-.6,1.7,1.5,1.9,2.6.2,1.6.7,3.1-1.8,3.9ZM207.7,248c-2.1.8-5.7,1.5-7-.4-1.8-2.6-2.8-1.5-4.5-.5-3.5,2.1-7.4,2.2-11.1,1.3-4.1-.9-6.9-3.5-7-7.9-.2-4.1,1.9-7.1,5.9-8.3,3.8-1.1,7.8-1.8,11.6-2.7,1.2-.3,2.9-.3,2.9-2.1,0-1.6-.7-3.2-2.3-3.5-2.7-.6-6.1-1.5-7.9,1.2-2,3-4.3,1.5-6.6,1.4-2.3-.1-2.8-1.3-1.6-3.3,1.3-2.2,3.1-3.9,5.6-4.7,4.7-1.6,9.5-1.4,14.3-.5,4.2.8,6.6,3.3,7.2,7.8.4,2.9,0,5.6,0,8.5.2,3.2.5,6.3.4,9.5,0,1.5,2.5,3.5.3,4.3ZM236.1,219.8c-.2,1.9.1,6.5-5.1,4.8-3.7-1.2-6,1.4-6.3,5.1-.4,5-.7,10-.5,14.9.1,3.5-1.6,3.7-4.3,3.6-2.5-.1-5.1.5-4.8-3.6.3-3.8,0-7.7,0-11.5,0-3.5-.1-7,0-10.5,0-1.6-1.2-4.3,1.5-4.4,2.2,0,5.4-2.2,6.8,1.5.8,2.1,1.4.4,1.9,0,1.6-1.6,3.5-2.6,5.8-2.4,2,.2,5.2-.3,4.9,2.4ZM268.2,245c-5.2,5.1-12.1,5-19.5-.3.2,5.4-3.7,3.5-6.3,3.6-3.4.1-2.2-2.7-2.2-4.4-.1-10.8,0-21.6-.1-32.4,0-3.6.6-4.8,4.5-4.9,4.4,0,4.4,2,4.2,5.1-.2,2.8,0,5.6,0,8.9,9.7-4.8,16.4-4,20.9,2.1,4.4,6,3.6,17.2-1.5,22.2ZM294.3,248.7c-10.5-.1-16.9-6.3-16.8-16.1.1-9.3,7.2-15.4,17.7-15.2,9.6.2,16.4,6.7,16.4,15.6,0,9.3-7.2,15.9-17.4,15.7ZM309.4,200.3c-55.1,0-110.2,0-165.3,0-1.7,0-3.9.7-3.9-2.3.3-17.4-.6-34.8.4-52.3.6,0,1.2-.2,1.9-.3,17.5-2.4,29.1-16,28.2-32.9-.9-15.9-13.9-28.3-30-28.9-1-8.4-.3-16.8-.4-25.2-.1-9.3,0-18.6,0-28,0-3.1.5-4.3,4.1-4.3,55.1.1,110.2.1,165.3,0,3.2,0,3.8,1,3.8,4,0,55.4,0,110.8,0,166.3,0,3-.8,3.9-3.9,3.9Z"/>
  <path class="cls-1" d="M210.8,29v169.1c26.4-24.1,41.2-52.6,40.1-87.9-1-32.6-15.9-58.8-40.1-81.2Z"/>
  <path class="cls-1" d="M173.7,54.8c-.7,10.6-.4,112.5.3,117.4,20.6-13.7,32.2-32.2,32.8-56.8.6-26-10.9-45.8-33.1-60.6Z"/>
  <path class="cls-1" d="M256.2,223.5c-4.7,0-7.4,3.3-7.5,9.1,0,6.2,2.9,10.1,7.7,10.1,4.6,0,7-3.3,7-9.4,0-6.3-2.5-9.8-7.3-9.8Z"/>
  <path class="cls-1" d="M192,235.3c-.5,0-1,.1-1.5.3-2.1.7-4.3,1.5-3.6,4.4.6,2.5,2.7,3.1,5.1,3.2,2.3-.6,4.8-1,5.8-3.8.6-1.5,1.3-3.7,0-4.6-1.8-1.3-4,.1-6,.5Z"/>
  <path class="cls-1" d="M95.9,223.7c-4.7,0-8.2,4.1-8.1,9.5,0,5.5,3.5,9.4,8.3,9.3,4.8,0,8-3.8,8-9.5,0-5.6-3.3-9.4-8.1-9.3Z"/>
  <path class="cls-1" d="M294.6,223.7c-4.7,0-8.1,3.9-8.1,9.4,0,5.6,3.3,9.4,8.1,9.4,4.9,0,8-3.6,8-9.4,0-5.7-3.1-9.4-7.9-9.4Z"/>
</svg>