<?xml version="1.0" encoding="UTF-8"?>
<svg id="Layer_1" data-name="Layer 1" xmlns="http://www.w3.org/2000/svg" version="1.1" xmlns:xlink="http://www.w3.org/1999/xlink" viewBox="0 0 306 75">
  <defs>
    <style>
      .cls-1 {
        fill: #fff;
      }

      .cls-1, .cls-2 {
        fill-rule: evenodd;
        stroke-width: 0px;
      }

      .cls-3 {
        mask: url(#mask-1);
      }

      .cls-4 {
        mask: url(#mask);
      }

      .cls-2 {
        fill: gold;
      }
    </style>
    <mask id="mask" x="0" y="0" width="75.1" height="75" maskUnits="userSpaceOnUse">
      <g id="mask-2">
        <polygon id="path-1" class="cls-1" points="0 0 75.1 0 75.1 75 0 75 0 0"/>
      </g>
    </mask>
    <mask id="mask-1" x="299.5" y="45.3" width="6.5" height="6.5" maskUnits="userSpaceOnUse">
      <g id="mask-4">
        <polygon id="path-3" class="cls-1" points="299.5 45.3 306 45.3 306 51.8 299.5 51.8 299.5 45.3"/>
      </g>
    </mask>
  </defs>
  <g id="home">
    <g id="Home">
      <g id="Group-23">
        <path id="Fill-1" class="cls-2" d="M146.9,48.5c-2.2,2.1-5.2,3.2-9.1,3.2s-6.8-1.1-9-3.2c-2.1-2.1-3.2-5.2-3.2-9.3v-15c0-.5.4-1,1-1h4.2c.5,0,1,.4,1,1v14.9c0,2.2.5,4,1.6,5.2,1.1,1.2,2.5,1.8,4.5,1.8s3.4-.6,4.5-1.7c1.1-1.1,1.6-2.8,1.6-5v-15.1c0-.5.4-1,1-1h4.2c.5,0,1,.4,1,1v14.8c0,4.2-1.1,7.3-3.3,9.5"/>
        <path id="Fill-3" class="cls-2" d="M171.1,51.3h-4.2c-.5,0-1-.4-1-1v-20.9c0-.3-.2-.5-.5-.5h-6.2c-.5,0-1-.4-1-1v-3.7c0-.5.4-1,1-1h19.6c.5,0,1,.4,1,1v3.7c0,.5-.4,1-1,1h-6.2c-.3,0-.5.2-.5.5v20.9c0,.5-.4,1-1,1"/>
        <path id="Fill-5" class="cls-2" d="M190.4,23.2h4.2c.6,0,1,.4,1,1v20.9c0,.3.2.5.5.5h10.8c.6,0,1,.4,1,1v3.6c0,.6-.4,1-1,1h-16.4c-.6,0-1-.4-1-1v-26.1c0-.6.4-1,1-1"/>
        <path id="Fill-7" class="cls-2" d="M223.3,24.2v26.1c0,.6-.4,1-1,1h-3.6c-.6,0-1-.4-1-1l-.9-26.1c0-.6.4-1,1-1h4.5c.6,0,1,.4,1,1"/>
        <path id="Fill-9" class="cls-2" d="M241.4,34v16.3c0,.5-.4,1-1,1h-4.1c-.5,0-1-.4-1-1v-26.1c0-.5.4-1,1-1h3.1c1,0,1.9.5,2.5,1.3l11.9,15.6c.1.1.3,0,.3-.1v-15.7c0-.5.4-1,1-1h4.1c.5,0,1,.4,1,1v26.1c0,.5-.4,1-1,1h-2.7c-1,0-1.9-.5-2.5-1.3l-12.3-16.1c-.1-.1-.3,0-.3.1"/>
        <path id="Fill-11" class="cls-2" d="M273,23.2h17.5c.5,0,1,.4,1,1v3.5c0,.5-.4,1-1,1h-11.8c-.3,0-.5.2-.5.5v4.7c0,.3.2.5.5.5h9.1c.5,0,1,.4,1,1v3.5c0,.5-.4,1-1,1h-9.1c-.3,0-.5.2-.5.5v4.9c0,.3.2.5.5.5h12c.5,0,1,.4,1,1v3.5c0,.5-.4,1-1,1h-17.7c-.5,0-1-.4-1-1v-26.1c0-.5.4-1,1-1"/>
        <path id="Fill-13" class="cls-2" d="M95.6,37.5c0,1.1.2,2.1.6,3.1.4,1,1,1.8,1.8,2.5.7.7,1.6,1.3,2.6,1.7,1,.4,2,.6,3.1.6s2.1-.2,3.1-.6c1-.4,1.8-1,2.6-1.7.7-.7,1.3-1.6,1.7-2.5.4-1,.6-2,.6-3.1s-.2-2.2-.6-3.1c-.4-1-1-1.9-1.7-2.6-.7-.7-1.6-1.3-2.6-1.8-1-.4-2-.6-3.2-.6s-2.2.2-3.1.7c-1,.4-1.8,1-2.6,1.8-.7.7-1.3,1.6-1.7,2.6-.4,1-.6,2-.6,3.1M88.9,37.5c0-2,.4-4,1.2-5.8.8-1.8,1.8-3.4,3.2-4.8,1.3-1.4,2.9-2.4,4.7-3.2,1.8-.8,3.7-1.2,5.8-1.2s4,.4,5.8,1.2c1.8.8,3.4,1.9,4.8,3.2,1.4,1.4,2.4,2.9,3.2,4.7.8,1.8,1.2,3.7,1.2,5.8s-.4,4-1.2,5.8c-.8,1.8-1.9,3.4-3.3,4.7-1.4,1.4-3,2.4-4.8,3.2-1.8.8-3.7,1.2-5.7,1.2s-4-.4-5.8-1.2c-1.8-.8-3.4-1.8-4.7-3.2-1.3-1.3-2.4-2.9-3.2-4.7-.8-1.8-1.2-3.7-1.2-5.8"/>
        <g id="Group-17">
          <g class="cls-4">
            <path id="Fill-15" class="cls-2" d="M59.9,38.3h-22.4c-.5,0-1-.4-1-.8s.4-.8,1-.8h22.4c.5,0,1,.4,1,.8s-.4.8-1,.8M22.9,46.1c-4.7,0-8.6-3.8-8.6-8.6s3.8-8.6,8.6-8.6,8.6,3.8,8.6,8.6-3.8,8.6-8.6,8.6M74.5,0H.6C.3,0,0,.3,0,.6v73.9c0,.3.3.6.6.6h74c.3,0,.6-.3.6-.6V.6C75.1.3,74.8,0,74.5,0"/>
          </g>
        </g>
        <path id="Fill-18" class="cls-2" d="M303.3,48c0,.1,0,.2-.1.3,0,0-.2.1-.3.1h-.6v-.8h.6c.1,0,.2,0,.3.1,0,0,.1.2.1.3M303.7,48.6c.1-.2.2-.3.2-.5s0-.5-.3-.7c-.2-.2-.4-.3-.7-.3h-1.2v2.8h.6v-1h.5l.6,1h.6l-.7-1.1c.1,0,.2-.2.3-.3"/>
        <g id="Group-22">
          <g class="cls-3">
            <path id="Fill-20" class="cls-2" d="M305.4,48.5c0,1.4-1.2,2.6-2.6,2.6s-2.6-1.2-2.6-2.6,1.2-2.6,2.6-2.6,2.6,1.2,2.6,2.6M302.7,45.3c-1.8,0-3.3,1.5-3.3,3.3s1.5,3.3,3.3,3.3,3.3-1.5,3.3-3.3-1.5-3.3-3.3-3.3"/>
          </g>
        </g>
      </g>
    </g>
  </g>
</svg>