<?xml version="1.0" encoding="UTF-8"?>
<svg id="Livello_1" data-name="Livello 1" xmlns="http://www.w3.org/2000/svg" version="1.1" viewBox="0 0 250 250">
  <defs>
    <style>
      .cls-1, .cls-2 {
        fill: gold;
        stroke-width: 0px;
      }

      .cls-2 {
        fill-rule: evenodd;
      }
    </style>
  </defs>
  <path class="cls-1" d="M125,7.3C60,7.3,7.3,60,7.3,125s52.7,117.7,117.7,117.7,117.7-52.7,117.7-117.7c0-65-52.7-117.7-117.7-117.7ZM125,235.5c-61,0-110.5-49.5-110.5-110.5S64,14.5,125,14.5c61,0,110.5,49.5,110.5,110.5,0,61-49.5,110.5-110.5,110.5h0Z"/>
  <path class="cls-2" d="M36.1,166.2h20.6v-32.9h8.6s7.3-.6,7.6,8.8,0,15.2,0,15.2c0,0,0,9.1,3.5,9.1h20.2v-1.3s-3-.3-3-11.7v-10.6s0-8.6-3.4-14c-1.3-2.3-3.4-4.2-5.8-5.3,0,0,9.2-5.1,9.2-13.7v-10.4s0-19.6-23.1-19.6h-34.6v86.5c.1,0,.1,0,.1,0ZM56.7,116.4v-20.2h10.1s8-.9,8,10.2-11,9.9-11,9.9h-7.1ZM138.3,108.5h18.8s1.9-30.7-28.4-30.7-30.8,39.3-30.8,47,3.1,42.8,30.6,42.8,29.3-33.9,29.3-33.9h-18.5s.7,17.1-9.7,17.1-11.4-18.3-11.4-28.9,1.5-26.9,11.2-26.9,8.8,13.4,8.8,13.4h0ZM163.6,166.3v-86.6h50v16.4h-29.8v18.7h25.2v17.1h-25.2v34.5h-20.2Z"/>
</svg>