<?xml version="1.0" encoding="UTF-8"?>
<svg id="Layer_1" data-name="Layer 1" xmlns="http://www.w3.org/2000/svg" version="1.1" viewBox="0 0 2000 500">
  <defs>
    <style>
      .cls-1 {
        fill: gold;
        stroke-width: 0px;
      }
    </style>
  </defs>
  <g id="surface1">
    <path class="cls-1" d="M1245.1,379.4v47.5h-55.8v-47.5h-22.4v106.8h22.4v-49.7h55.8v38.2c-.2,2,.3,4,1.3,5.8.9,1.4,2.1,2.6,3.5,3.5,1.4.9,2.9,1.4,4.5,1.6,1.5.3,3,.4,4.5.3h8.7v-106.8h-22.4v.3Z"/>
    <path class="cls-1" d="M1685.7,486.2v-106.8h-22.1l-44.3,79.2-44.9-79.2h-22.4v106.8h11.5v-82.7l47.5,82.7h5.8l46.2-82.1v70.5c0,2,.5,4.1,1.6,5.8.9,1.4,2.1,2.6,3.5,3.5,1.4.9,2.9,1.4,4.5,1.6,1.5.3,3,.4,4.5.3h8.7v.3Z"/>
    <path class="cls-1" d="M1827.2,486.2l-56.4-109h-6.7l-57.7,109h13.1l18-34h41l-5.8-10.9h-29.5l18.9-35.9,37.2,72.1c1.2,2.6,3.1,4.8,5.5,6.4,2.6,1.4,5.4,2,8.3,1.9h14.1v.3Z"/>
    <path class="cls-1" d="M1944.5,379.4c-.7,0-1.3,0-1.9.3-1,.3-1.6.3-2.2,1-.8.5-1.5,1.1-1.9,1.9-.5,1-.8,2.1-.6,3.2v68.9l-75-74.7h-14.4v106.8h13.1v-80.5l76,77.9c3.2,2.9,7.4,2.6,11.5,2.6h1.6v-106.8h-6.1v-.6Z"/>
    <path class="cls-1" d="M1353.2,376.8h-6.7l-57.7,109h13.1l42.7-80.8,18.6,35.9h-29.8l-5.8,10.9h41l13.1,25.3c1.2,2.6,3.1,4.8,5.5,6.4,2.6,1.4,5.4,2,8.3,1.9h13.8l-56.1-108.7Z"/>
    <path class="cls-1" d="M1453.3,388.7v40.4h10.3c5.8,0,11.6-1.2,17-3.5,6.7-3.8,11.5-9,11.5-17,0-7.9-5-15-12.5-17.6-3.7-1.4-7.6-2.1-11.5-1.9h-14.8v-.3ZM1498.2,477.5l-33.3-40.1h-11.5v48.7h-22.4v-106.8h41.4s17-.3,28.2,5.1c11.2,5.5,16,13.1,16,23.1s-6.1,21.5-27.3,27.3l43,51h-17.3c-2.6,0-5.2-.5-7.7-1.3-3.5-1.6-6.6-4-9-7.1"/>
    <path class="cls-1" d="M1081,479.4c2.5,1,5.1,1.5,7.7,1.6,3.6.2,7.1-1.1,9.7-3.5,2.6-2.4,4.2-5.8,4.4-9.3v-1.1c0-7.4-4.5-12.5-10.9-12.5s-7.1,1.9-10.9,6.1v18.8ZM1077.8,436.5h3.5v20.5c2.8-3.3,6.9-5.1,11.2-5.1,8.3,0,14.1,6.1,14.1,15.1.3,4.7-1.5,9.4-4.9,12.7-3.4,3.3-8,5-12.8,4.6-3.8,0-7.7-.8-11.2-2.2v-45.5Z"/>
    <path class="cls-1" d="M1116.9,499.6h-3.5l10.9-22.1-13.1-25h3.5l11.2,21.8,10.9-21.8h3.5l-23.4,47.1Z"/>
    <path class="cls-1" d="M2000,23.4c.3,13.1-10,24-23.1,24.4-13.1.4-24-10-24.4-23.1-.4-13.1,10-24,23.1-24.4h.6c12.8-.3,23.4,9.9,23.7,22.7v.4M1958.3,23.4c-.3,10,7.6,18.3,17.6,18.6h.4c10.2.3,18.6-7.8,18.9-18,.3-10.2-7.8-18.6-17.9-18.9-10.2-.3-18.6,7.8-18.9,17.9v.3M1972.7,35.6h-5.4V12.5c3-.4,6-.7,9-.6,2.8-.3,5.6.3,8,1.6,1.5,1.3,2.3,3.2,2.2,5.1-.2,2.7-2.2,4.9-4.8,5.4v.3c2.3,1,3.9,3.2,4.2,5.8.3,2,.9,3.9,1.6,5.8h-5.8c-.9-1.8-1.6-3.8-1.9-5.8-.3-2.6-1.9-3.5-4.8-3.5h-2.6v9h.3ZM1972.7,22.5h2.6c2.9,0,5.5-1,5.5-3.5s-1.6-3.5-4.8-3.5c-1,0-2,0-2.9.3v6.7h-.3Z"/>
    <path class="cls-1" d="M62.5,75.4c-1.6,18.3,3.8,30.8,15.7,38.2,15.9,9.8,33.4,16.7,51.6,20.5,14.8,2.9,29.8,7.4,44.6,11.2,12.9,3.7,25.5,8.2,37.8,13.5,10.6,5.4,19.5,13.5,26,23.4,7.3,11.5,11.1,24.9,10.9,38.5,0,32.4-13.5,57.1-38.5,70.5-25.6,15.1-54.9,23-84.7,22.8-22.2-.5-44.2-3.6-65.7-9-21.5-5.6-41.9-15-60.3-27.6l18.3-51.9.6,1.6c1.8,24.7,16.4,46.8,38.5,58,21.8,12.9,46.8,19.7,72.2,19.6,20.9,0,41.5-5.4,59.6-15.7,16.4-9.9,25-27.3,25-50.3,0-9.6-2.6-19.1-7.7-27.3-6-7.4-13.1-13.8-21.2-18.9-8.2-4.3-16.9-7.5-26-9.6-9.7-3.5-19.7-6.2-29.8-8.3-31.4-7.7-56.4-16.7-73.8-26.3-18.3-9.9-28.9-28.5-28.9-54.2-.5-21.1,6.7-41.6,20.2-57.7,15.1-13.5,32.1-25.7,52.6-30.1,9.8-1.8,19.8-2.7,29.8-2.9,39.1,0,77.6,11.9,116.1,34.6l-15.1,45.9-3.2-1.3c-.3-14.2-6.3-27.8-16.7-37.5-11.7-10.1-25.4-17.7-40.1-22.4-13-4.9-26.8-7.5-40.7-7.7-16.7.2-32.8,5.8-46.2,15.7-15.1,10.3-21.2,26-21.2,44.9M378.1,76.7c-14.7-.5-29.2,4-41,12.8-12.5,8.3-21.8,22.4-28.2,38.5-6.4,20.4-9.5,41.8-9.3,63.2v2.2c.6,75,27.6,111.9,78.6,111.9,21.9.5,42.7-9.3,56.4-26.3,14.8-21.8,21.8-51,20.5-87.9.5-26-4.3-51.9-14.1-76-10.3-23.1-31.4-36.9-62.9-38.5M378.1,68.3c20.9-.3,41.4,5.5,59,16.7,17.5,11.1,31.6,26.7,40.7,45.2,9.6,18.9,14.7,39.7,14.8,60.9.2,22.1-5.2,43.8-15.7,63.2-9.9,18-25.7,34.6-42.3,43.6-17,10.5-36.5,16.2-56.4,16.4-19.1-.3-37.9-5.1-54.8-14.1-17.4-10-31.9-24.2-42.3-41.4-11.5-19.8-17.5-42.4-17.3-65.4-.4-23.4,5.2-46.4,16.4-67,11.5-18.9,26-34.3,43.3-43,16.6-9.8,35.5-15,54.8-15.1M508.9,98.5c18-2.2,35.3-8.1,51-17.3v20.2c0,6.1-1.6,14.4-1.6,21.8s-1,16.7-1,24.1c0,11.9,1,34,1,62.2s7.7,62.2,20.5,76c8.7,9.9,23.4,16.4,40.7,16.4s38.5-9.9,51.9-25c9.3-13.5,16.4-41.4,17.3-80.5v-60.9c0-14.1-2.2-24.1-4.2-26.9-4.5-3.4-9.8-5.7-15.4-6.7v-1.6c22.1-7.4,39.8-13.5,51-18.3-1.6,7.5-2.3,15.1-2.2,22.8,0,3.8.6,14.4.6,29.2,0,27.9-.6,51-.6,71.5v33c0,6.7.6,15.7.6,24,1,9.9,2.5,19.8,4.5,29.5,2.1,6.4,6.3,12,11.9,15.7l1.6.6h-34.6c-6-13.5-10.4-27.8-13.1-42.3-15.1,32.4-41.7,49.1-77.6,49.1s-57.4-11.2-69.9-32.1c-8.3-15.1-13.1-35.9-13.1-58v-91.1c0-13.5-1.6-22.4-3.2-25-5-3.4-10.5-5.9-16.4-7.4v-2.9h.3ZM957.2,180.6v68.3c0,9.6,2.2,18.6,2.2,27.6,0,16,7.1,26.9,19.6,29.2v1.6h-71.8v-1.6c13.1-3.8,20.2-20.8,20.2-48.7v-76c0-31.4-5.4-55.5-15.7-70.5-9.9-16.4-27.3-25-49.4-25s-36.2,10.6-45.5,29.2c-10.9,18-17.3,40.7-19.6,66.7-2.2,27.3,0,51.9,0,78.9s-2.2,11.9,3.8,31.7c2.1,6.7,7.4,12,14.1,14.1v1.6h-68.3v-1.6c12.5-3.8,18.9-19.6,18.9-44.9v-103.6c-1-27.3-2.6-43-2.6-45.9-2-7.1-8.1-12.2-15.4-12.8v-1.6c16-4.1,31.3-10.5,45.5-18.9v31.4c0,15.1-1.6,26.3-1.6,31.1,8.7-27.3,22.8-46.8,39.4-57.4,12.6-7.5,27-11.4,41.7-11.2,32.4,0,56.4,11.9,69.3,37.5,8.7,12.8,14.1,38.5,15.1,70.9M1149.3,17.4c20.5-5.1,38.5-9.9,51-16.7v214.2c0,4.5.6,13.5.6,24.7s1.6,18.9,1.6,26.3c.3,7.1,1.6,14.1,3.8,20.8,1.4,9.6,8.1,17.6,17.3,20.5v.6h-41.7c-3-6.5-5.2-13.4-6.4-20.5-1.9-8.2-3.2-16.6-3.8-25-16.4,33-43.3,49.7-79.2,52.6-19,.8-37.9-3.4-54.8-12.2-17-9.7-31.3-23.5-41.7-40.1-10.5-17.8-15.9-38.1-15.7-58.7-.1-26.4,8-52.2,23.4-73.8,14-20.5,35-35.2,59-41.4,9.7-2.5,19.8-3.8,29.8-3.8,16.4,0,31.4,2.9,43.3,9.6,12.5,5.1,25,15.7,35.9,29.8v-23.1c0-33.7-1.6-51-1.6-56.4-2.2-14.4-9.3-23.4-20.5-23.4v-4.2h-.3ZM1170.1,196.9c0-57.1-18.3-91.7-52.6-101.7-8.3-1.9-16.8-2.9-25.3-2.9-14.4-.1-28.6,4-40.7,11.9-22.1,16.4-34.3,50.3-34.3,97.8s3.2,44.6,10.9,60c5.9,13.8,16,25.4,28.9,33,10.9,6.1,22.8,11.2,35.3,11.2,30.5,0,53.6-15.7,66.7-44.3,8.7-17.6,11.2-40.1,11.2-65.1M1335.6,68.3c15.8.4,31.4,2.9,46.5,7.7,16.4,3.8,31.4,12.8,45.5,21.8l-12.5,39.8h-2.6c-11.9-37.5-37.5-58-77-60.9-10.4.3-20.5,2.8-29.8,7.4-11.4,6.1-21.1,14.9-28.2,25.7-7,10.2-12,21.6-14.8,33.7-3.3,15.5-4.9,31.3-4.8,47.1,0,25.7,4.5,47.5,12.5,64.5,14.1,30.1,38.5,46.5,68.9,46.5s37.2-4.8,49.4-15.7c14.6-11,25.9-25.9,32.4-43l6.4,12.5c-5.2,9.5-11.3,18.6-18.3,26.9-6.1,9-16.4,16.7-28.2,23.1-12.9,6.5-27.2,9.9-41.7,9.9-43.9,1-78.2-18.3-102-59.3-10.9-18.6-15.7-40.1-15.4-63.8,0-17,3.2-33.8,9.3-49.7,5.6-15.8,14.7-30.2,26.6-42,11.5-9.6,23.4-18.3,34.6-22.8,13.5-6.1,28.1-9.3,43-9.3M1559.7,72.5l-13.5,44.9c-3.3-7.9-11-13.1-19.6-13.1-14.1,0-26,8.3-32.4,24.1-7.8,17-11.8,35.5-11.9,54.2v85.9c0,5.8,3.2,12.8,4.2,21.8,3.8,7.6,10.7,13.1,18.9,15.1v1.6h-77v-1.6c15.7-1.6,25-20.8,25-57.4s-.6-68.3-.6-94c.1-16.6-.9-33.2-3.2-49.7-1.6-6.1-8-9.9-16.4-9.9v-3.5c22.1-5.1,40.1-9.6,48.7-14.4,0,23.4-1,44.2-1,60.3,6.4-17.1,16.6-32.4,29.8-44.9,10.7-12.2,26.1-19.3,42.3-19.6h6.4v.3ZM1712.4,176.7h-14.1c-25.8-.5-51.5,4.3-75.4,14.1-21.2,9-32.1,26.9-32.1,54.8s4.2,31.7,13.5,42.3c10.3,11.9,23.7,17.3,40.7,17.3,16.2.4,32-5.4,43.9-16.4,9.6-9.6,17.3-21.8,19.6-34,2.3-17.2,3.6-34.6,3.8-51.9v-26.3ZM1742.8,155.9v92.4c0,35.3,7.7,54.2,20.2,58v.6h-39.1c-2.2-1.6-6.1-16.7-9.3-40.7-14.8,31.4-38.5,47.5-72.1,47.5s-51.6-7.4-66.1-21.2-22.1-29.5-22.1-46.8c0-14.9,5.3-29.2,15.1-40.4,12.8-13.3,28.8-23.1,46.5-28.5,25.7-5.9,51.9-8.9,78.2-9h18.3v-10.6c0-23.4-5.5-42.3-14.1-53.6-10.3-14.4-26-22.8-48.7-22.8s-45.5,7.4-55.8,20.5-16.7,27.9-16.7,36.2h-2.6l-11.9-42c28.4-14.9,59.9-23,92-23.4,36.2,0,61.2,9.9,73.1,27.9,3.5,3.5,6,8,7.1,12.8,2.2,3.7,3.6,7.9,4.2,12.2,0,3.8,1.6,9,1.6,15.1s2.2,11.2,2.2,15.7M1848.6,307.6h-75.7v-1.6c14.1-4.5,21.2-18,21.2-38.5,2.2-32.4,3.2-84.3,3.2-161.6h-35.9l3.9-10.6h32.1c0-1.5-.4-3.1-1-4.5,1-21.8,2.6-30.8,7.1-41.4,2.2-7.4,7.1-13.5,13.1-20.2,8.7-9.6,19.8-16.7,32.1-20.8,11.9-3.8,23.4-7.7,31.4-7.7h6.4l-11.5,35.3h-2.6c-8-9.9-16.4-15.7-21.8-15.7-9.6,0-15.1,6.7-18.9,15.1-5.4,11.2-7.1,20.2-7.1,36.2s1.3,15.1,1.3,23.4h37.8l-3.2,10.6h-34.6c0,100,1,152,2.2,161.6.5,8.5,2.1,16.9,4.8,25,2.8,6.7,8.6,11.7,15.7,13.5v1.9ZM1924.3,105.5c0,19.6-1,59.3-1,105.2-.2,18.8.6,37.7,2.6,56.4,1.1,10.2,4.6,20,10.3,28.5,4.1,5.1,9.6,9,15.7,11.2v1.6h-36.2c-6.1,0-9.6-6.1-11.9-9.9-5.8-12.7-8.5-26.5-8-40.4,1-87.9,1.6-118,1.6-152.6h-30.5l1-10.6c15.8-2.5,29.8-11.6,38.5-25,7.1-11.2,9.6-19.6,13.5-34h4.5l.6,5.5c1.6,12.2,0,22.4,0,29.8s-.6,14.4-.6,21.8h40.7l-4.5,12.8h-36.2v-.3Z"/>
  </g>
</svg>