<?xml version="1.0" encoding="UTF-8"?>
<svg id="Layer_1" data-name="Layer 1" xmlns="http://www.w3.org/2000/svg" version="1.1" viewBox="0 0 1936.3 566">
  <defs>
    <style>
      .cls-1 {
        fill: gold;
        stroke-width: 0px;
      }
    </style>
  </defs>
  <polygon class="cls-1" points="1504.5 228 1414.1 228 1414.1 47.2 1331.5 47.2 1331.5 518.7 1414.1 518.7 1414.1 311.7 1504.5 311.7 1504.5 518.7 1588.8 518.7 1588.8 47.2 1504.5 47.2 1504.5 228"/>
  <path class="cls-1" d="M369.7,47.2l-86.2,471.5h76.4l18.3-109.7h95l17.8,109.7h84.2L497.4,47.2h-127.7ZM391.3,330.4l35.1-210.9,34.1,210.9h-69.3Z"/>
  <polygon class="cls-1" points="233.5 47.2 171.1 230.9 114.7 47.2 32.3 47.2 123.9 336.4 123.9 518.7 215.6 518.7 215.6 327 310.7 47.2 233.5 47.2"/>
  <path class="cls-1" d="M1840.4,47.2h-127.7l-86.2,471.5h76.4l18.3-109.7h95.1l17.8,109.7h84.2l-77.8-471.5ZM1734.4,330.4l35.1-210.9,34.1,210.9h-69.2Z"/>
  <polygon class="cls-1" points="789.1 271.5 743.2 47.2 614.3 47.2 614.3 518.7 688.3 518.7 688.3 163.3 751.3 472.3 820.4 472.3 876.3 158.3 876.3 518.7 963 518.7 963 47.2 828.7 47.2 789.1 271.5"/>
  <path class="cls-1" d="M1086.9,47.2l-86.2,471.5h76.4l18.3-109.7h95l17.8,109.7h84.2l-77.8-471.5h-127.7ZM1108.5,330.4l35.1-210.9,34.1,210.9h-69.3Z"/>
</svg>